<svg width="36" height="21" viewBox="0 0 36 21" fill="none" xmlns="http://www.w3.org/2000/svg">
<path d="M1.10419 1.10419C0.494361 1.71401 0.494362 2.70274 1.10419 3.31256L16.7836 18.992C17.3935 19.6018 18.3822 19.6018 18.992 18.992C19.6018 18.3822 19.6018 17.3935 18.992 16.7836L3.31256 1.10419C2.70274 0.49436 1.71401 0.494361 1.10419 1.10419Z" fill="#EF5154"/>
<path d="M16.9859 18.992C17.5957 19.6019 18.5844 19.6019 19.1943 18.992L34.8737 3.31258C35.4836 2.70275 35.4836 1.71403 34.8737 1.1042C34.2639 0.494376 33.2752 0.494376 32.6654 1.1042L16.9859 16.7837C16.3761 17.3935 16.3761 18.3822 16.9859 18.992Z" fill="#EF5154"/>
</svg>
