<svg width="422" height="523" viewBox="0 0 422 523" fill="none" xmlns="http://www.w3.org/2000/svg">
<g clip-path="url(#clip0_1_3)">
<path d="M205.147 128.408H139.284C133.365 128.408 128.566 133.206 128.566 139.126V163.991C128.566 169.91 133.365 174.709 139.284 174.709H205.147C211.067 174.709 215.865 169.91 215.865 163.991V139.126C215.865 133.206 211.067 128.408 205.147 128.408Z" fill="url(#paint0_linear_1_3)"/>
<path d="M282.594 128.408H238.227C232.307 128.408 227.509 133.206 227.509 139.126V163.991C227.509 169.91 232.307 174.709 238.227 174.709H282.594C288.513 174.709 293.312 169.91 293.312 163.991V139.126C293.312 133.206 288.513 128.408 282.594 128.408Z" fill="url(#paint1_linear_1_3)"/>
<path d="M245.605 66.6733H151.288C145.369 66.6733 140.57 71.4718 140.57 77.3911V106.115C140.57 112.034 145.369 116.833 151.288 116.833H245.605C251.524 116.833 256.323 112.034 256.323 106.115V77.3911C256.323 71.4718 251.524 66.6733 245.605 66.6733Z" fill="url(#paint2_linear_1_3)"/>
<path d="M226.206 0H201.555C195.576 0 190.73 4.84651 190.73 10.825V44.2731C190.73 50.2516 195.576 55.0981 201.555 55.0981H226.206C232.184 55.0981 237.031 50.2516 237.031 44.2731V10.825C237.031 4.84651 232.184 0 226.206 0Z" fill="url(#paint3_linear_1_3)"/>
<path d="M299.044 16.514H259.902C253.664 16.514 248.606 21.5717 248.606 27.8106V43.8015C248.606 50.0405 253.664 55.0981 259.902 55.0981H299.044C305.283 55.0981 310.34 50.0405 310.34 43.8015V27.8106C310.34 21.5717 305.283 16.514 299.044 16.514Z" fill="url(#paint4_linear_1_3)"/>
<path d="M311.198 66.6733H278.616C272.696 66.6733 267.898 71.4718 267.898 77.3911V106.115C267.898 112.034 272.696 116.833 278.616 116.833H311.198C317.117 116.833 321.916 112.034 321.916 106.115V77.3911C321.916 71.4718 317.117 66.6733 311.198 66.6733Z" fill="url(#paint5_linear_1_3)"/>
<path d="M44.9676 128.408H23.9607C18.0414 128.408 13.2429 133.206 13.2429 139.126V163.991C13.2429 169.91 18.0414 174.709 23.9607 174.709H44.9676C50.8869 174.709 55.6854 169.91 55.6854 163.991V139.126C55.6854 133.206 50.8869 128.408 44.9676 128.408Z" fill="url(#paint6_linear_1_3)"/>
<path d="M68.1181 82.1069H47.1112C41.1919 82.1069 36.3934 86.9055 36.3934 92.8248V106.115C36.3934 112.034 41.1919 116.833 47.1112 116.833H68.1181C74.0373 116.833 78.8359 112.034 78.8359 106.115V92.8248C78.8359 86.9055 74.0373 82.1069 68.1181 82.1069Z" fill="url(#paint7_linear_1_3)"/>
<path d="M118.277 82.1069H101.129C95.2096 82.1069 90.4111 86.9055 90.4111 92.8248V106.115C90.4111 112.034 95.2096 116.833 101.129 116.833H118.277C124.197 116.833 128.995 112.034 128.995 106.115V92.8248C128.995 86.9055 124.197 82.1069 118.277 82.1069Z" fill="url(#paint8_linear_1_3)"/>
<path d="M118.277 31.9476H101.129C95.2096 31.9476 90.4111 36.7462 90.4111 42.6654V59.8139C90.4111 65.7332 95.2096 70.5317 101.129 70.5317H118.277C124.197 70.5317 128.995 65.7332 128.995 59.8139V42.6654C128.995 36.7462 124.197 31.9476 118.277 31.9476Z" fill="url(#paint9_linear_1_3)"/>
<path d="M168.437 10.6749H151.288C145.369 10.6749 140.57 15.4735 140.57 21.3927V44.3846C140.57 50.3038 145.369 55.1024 151.288 55.1024H168.437C174.356 55.1024 179.155 50.3038 179.155 44.3846V21.3927C179.155 15.4735 174.356 10.6749 168.437 10.6749Z" fill="url(#paint10_linear_1_3)"/>
<path d="M71.1191 55.0981H67.2606C62.9988 55.0981 59.5438 58.553 59.5438 62.8149C59.5438 67.0768 62.9988 70.5317 67.2606 70.5317H71.1191C75.3809 70.5317 78.8359 67.0768 78.8359 62.8149C78.8359 58.553 75.3809 55.0981 71.1191 55.0981Z" fill="url(#paint11_linear_1_3)"/>
<path d="M372.932 78.2485H344.209C338.289 78.2485 333.491 83.0471 333.491 88.9663V106.115C333.491 112.034 338.289 116.833 344.209 116.833H372.932C378.852 116.833 383.65 112.034 383.65 106.115V88.9663C383.65 83.0471 378.852 78.2485 372.932 78.2485Z" fill="url(#paint12_linear_1_3)"/>
<path d="M338.207 43.5229H336.492C330.573 43.5229 325.774 48.3214 325.774 54.2407V55.9555C325.774 61.8748 330.573 66.6733 336.492 66.6733H338.207C344.126 66.6733 348.925 61.8748 348.925 55.9555V54.2407C348.925 48.3214 344.126 43.5229 338.207 43.5229Z" fill="url(#paint13_linear_1_3)"/>
<path d="M399.941 128.408H315.485C309.566 128.408 304.767 133.206 304.767 139.126V163.991C304.767 169.91 309.566 174.709 315.485 174.709H399.941C405.861 174.709 410.659 169.91 410.659 163.991V139.126C410.659 133.206 405.861 128.408 399.941 128.408Z" fill="url(#paint14_linear_1_3)"/>
<path d="M124.284 290.465H188.359C194.278 290.465 199.077 285.667 199.077 279.748V254.882C199.077 248.963 194.278 244.164 188.359 244.164H124.284C118.364 244.164 113.566 248.963 113.566 254.882V279.748C113.566 285.667 118.364 290.465 124.284 290.465Z" fill="url(#paint15_linear_1_3)"/>
<path d="M286.963 290.465H345.821C351.74 290.465 356.538 285.667 356.538 279.748V254.882C356.538 248.963 351.74 244.164 345.821 244.164H286.963C281.043 244.164 276.245 248.963 276.245 254.882V279.748C276.245 285.667 281.043 290.465 286.963 290.465Z" fill="url(#paint16_linear_1_3)"/>
<path d="M178.301 352.2H272.618C278.537 352.2 283.336 347.401 283.336 341.482V312.758C283.336 306.839 278.537 302.041 272.618 302.041H178.301C172.382 302.041 167.584 306.839 167.584 312.758V341.482C167.584 347.401 172.382 352.2 178.301 352.2Z" fill="url(#paint17_linear_1_3)"/>
<path d="M197.195 420.314H222.06C227.979 420.314 232.778 415.515 232.778 409.596V374.489C232.778 368.569 227.979 363.771 222.06 363.771H197.195C191.275 363.771 186.477 368.569 186.477 374.489V409.596C186.477 415.515 191.275 420.314 197.195 420.314Z" fill="url(#paint18_linear_1_3)"/>
<path d="M123.885 402.359H164.184C170.103 402.359 174.902 397.561 174.902 391.641V374.493C174.902 368.574 170.103 363.775 164.184 363.775H123.885C117.966 363.775 113.167 368.574 113.167 374.493V391.641C113.167 397.561 117.966 402.359 123.885 402.359Z" fill="url(#paint19_linear_1_3)"/>
<path d="M378.939 290.465H399.946C405.865 290.465 410.663 285.667 410.663 279.748V254.882C410.663 248.963 405.865 244.164 399.946 244.164H378.939C373.019 244.164 368.221 248.963 368.221 254.882V279.748C368.221 285.667 373.019 290.465 378.939 290.465Z" fill="url(#paint20_linear_1_3)"/>
<path d="M354.764 336.766H373.961C379.315 336.766 383.655 332.426 383.655 327.073V311.734C383.655 306.38 379.315 302.041 373.961 302.041H354.764C349.41 302.041 345.07 306.38 345.07 311.734V327.073C345.07 332.426 349.41 336.766 354.764 336.766Z" fill="url(#paint21_linear_1_3)"/>
<path d="M305.629 386.926H322.777C328.697 386.926 333.495 382.127 333.495 376.208V359.059C333.495 353.14 328.697 348.341 322.777 348.341H305.629C299.71 348.341 294.911 353.14 294.911 359.059V376.208C294.911 382.127 299.71 386.926 305.629 386.926Z" fill="url(#paint22_linear_1_3)"/>
<path d="M255.47 409.352H272.618C278.537 409.352 283.336 404.553 283.336 398.634V374.489C283.336 368.569 278.537 363.771 272.618 363.771H255.47C249.55 363.771 244.752 368.569 244.752 374.489V398.634C244.752 404.553 249.55 409.352 255.47 409.352Z" fill="url(#paint23_linear_1_3)"/>
<path d="M352.787 363.775H356.646C360.908 363.775 364.362 360.32 364.362 356.058C364.362 351.796 360.908 348.341 356.646 348.341H352.787C348.525 348.341 345.07 351.796 345.07 356.058C345.07 360.32 348.525 363.775 352.787 363.775Z" fill="url(#paint24_linear_1_3)"/>
<path d="M50.9739 340.625H79.6976C85.6169 340.625 90.4154 335.826 90.4154 329.907V312.758C90.4154 306.839 85.6169 302.041 79.6976 302.041H50.9739C45.0546 302.041 40.2561 306.839 40.2561 312.758V329.907C40.2561 335.826 45.0546 340.625 50.9739 340.625Z" fill="url(#paint25_linear_1_3)"/>
<path d="M84.8421 375.35H86.557C92.4763 375.35 97.2748 370.552 97.2748 364.633V362.918C97.2748 356.998 92.4763 352.2 86.557 352.2H84.8421C78.9228 352.2 74.1243 356.998 74.1243 362.918V364.633C74.1243 370.552 78.9228 375.35 84.8421 375.35Z" fill="url(#paint26_linear_1_3)"/>
<path d="M23.965 290.465H91.2728C97.1921 290.465 101.991 285.667 101.991 279.748V254.882C101.991 248.963 97.1921 244.164 91.2728 244.164H23.965C18.0457 244.164 13.2472 248.963 13.2472 254.882V279.748C13.2472 285.667 18.0457 290.465 23.965 290.465Z" fill="url(#paint27_linear_1_3)"/>
<path d="M317.397 321.826H309.196C308.813 321.826 308.435 321.74 308.089 321.575C307.744 321.411 307.439 321.171 307.198 320.873C306.957 320.576 306.785 320.228 306.695 319.856C306.606 319.484 306.6 319.096 306.679 318.722L310.208 302.036H305.063C302.366 302.036 299.779 303.108 297.872 305.015C295.965 306.922 294.894 309.508 294.894 312.205V326.597C294.895 329.293 295.967 331.879 297.874 333.785C299.781 335.691 302.367 336.762 305.063 336.762H312.78L317.397 321.826Z" fill="url(#paint28_linear_1_3)"/>
<path d="M323.326 302.036H315.468L312.368 316.681H320.878C321.281 316.681 321.679 316.775 322.039 316.956C322.398 317.137 322.711 317.401 322.95 317.725C323.19 318.049 323.35 318.425 323.417 318.822C323.485 319.22 323.458 319.627 323.339 320.012L318.194 336.762H323.339C326.035 336.761 328.619 335.69 330.525 333.784C332.431 331.878 333.503 329.293 333.504 326.597V312.205C333.504 310.869 333.24 309.546 332.729 308.312C332.217 307.078 331.468 305.956 330.522 305.012C329.577 304.067 328.455 303.318 327.22 302.808C325.986 302.297 324.662 302.035 323.326 302.036Z" fill="url(#paint29_linear_1_3)"/>
<path d="M91.8645 175.026C104.849 175.026 115.375 164.5 115.375 151.515C115.375 138.531 104.849 128.005 91.8645 128.005C78.8799 128.005 68.3539 138.531 68.3539 151.515C68.3539 164.5 78.8799 175.026 91.8645 175.026Z" fill="url(#paint30_linear_1_3)"/>
<path d="M143.537 350.764H115.799C112.605 350.763 109.542 349.494 107.282 347.236C105.023 344.978 103.752 341.916 103.748 338.721V314.246C103.762 311.058 105.037 308.006 107.296 305.756C109.554 303.507 112.612 302.243 115.799 302.242H143.537C146.724 302.244 149.78 303.508 152.038 305.758C154.295 308.007 155.57 311.059 155.584 314.246V338.704C155.585 341.901 154.317 344.967 152.058 347.228C149.798 349.49 146.734 350.761 143.537 350.764ZM115.799 308.06C114.157 308.061 112.583 308.712 111.42 309.872C110.258 311.031 109.602 312.604 109.596 314.246V338.704C109.597 340.349 110.251 341.926 111.414 343.089C112.577 344.252 114.155 344.906 115.799 344.908H143.537C145.182 344.906 146.76 344.253 147.924 343.09C149.088 341.927 149.743 340.349 149.745 338.704V314.246C149.743 312.601 149.088 311.024 147.924 309.86C146.76 308.697 145.182 308.044 143.537 308.043L115.799 308.06Z" fill="url(#paint31_linear_1_3)"/>
<path d="M241.052 244.203L246.66 238.595L219.342 231.02L222.999 244.203H241.052Z" fill="url(#paint32_linear_1_3)"/>
<path d="M253.948 244.16H241.086L240.568 244.679L252.863 256.974C253.042 257.153 253.185 257.366 253.282 257.6C253.379 257.834 253.429 258.084 253.429 258.338C253.429 258.591 253.379 258.842 253.282 259.076C253.185 259.31 253.042 259.522 252.863 259.701L247.796 264.777C247.617 264.956 247.404 265.099 247.17 265.196C246.936 265.293 246.686 265.343 246.432 265.343C246.179 265.343 245.928 265.293 245.694 265.196C245.46 265.099 245.248 264.956 245.069 264.777L232.791 252.481L226.917 258.338L222.986 244.16H221.366C218.523 244.16 215.797 245.289 213.787 247.299C211.777 249.309 210.648 252.035 210.648 254.878V279.743C210.648 282.586 211.777 285.312 213.787 287.322C215.797 289.332 218.523 290.461 221.366 290.461H253.948C256.79 290.461 259.516 289.332 261.526 287.322C263.536 285.312 264.665 282.586 264.665 279.743V254.878C264.665 252.035 263.536 249.309 261.526 247.299C259.516 245.289 256.79 244.16 253.948 244.16Z" fill="url(#paint33_linear_1_3)"/>
<path d="M2.29361 230.527V187.154H23.1119L41.4522 222.532H42.6311C42.0105 220.704 41.5346 218.831 41.2078 216.928C40.8515 214.621 40.6909 212.288 40.7277 209.953V187.154H53.5547V230.527H32.7793L14.3747 195.145H13.2601C13.8705 197.01 14.3476 198.915 14.6877 200.847C15.0443 203.116 15.2092 205.41 15.1807 207.707V230.51L2.29361 230.527Z" fill="#434343"/>
<path d="M106.321 187.154V197.443H75.8435V203.947H101.995V213.07H75.8435V220.259H106.321V230.549H62.4591V187.154H106.321Z" fill="#434343"/>
<path d="M124.082 228.452C119.766 226.489 116.513 223.803 114.32 220.397C112.174 216.924 111.037 212.923 111.037 208.841C111.037 204.758 112.174 200.757 114.32 197.285C116.51 193.875 119.764 191.19 124.082 189.229C128.401 187.269 133.615 186.287 139.726 186.284C145.465 186.284 150.391 187.09 154.504 188.702C158.616 190.314 161.839 192.503 164.171 195.27C166.457 197.949 167.942 201.218 168.458 204.701H155.095C154.555 202.627 153.016 200.843 150.478 199.351C147.94 197.859 144.356 197.116 139.726 197.122C136.419 197.122 133.621 197.628 131.332 198.639C129.233 199.493 127.433 200.947 126.157 202.819C125.026 204.617 124.426 206.698 124.426 208.821C124.426 210.945 125.026 213.026 126.157 214.823C127.431 216.698 129.232 218.154 131.332 219.008C133.618 220.019 136.416 220.525 139.726 220.525C144.35 220.525 147.934 219.782 150.478 218.296C153.022 216.81 154.561 215.033 155.095 212.967H168.484C167.97 216.466 166.484 219.75 164.197 222.446C161.882 225.215 158.659 227.395 154.529 228.984C150.399 230.573 145.463 231.367 139.722 231.367C133.611 231.385 128.398 230.413 124.082 228.452Z" fill="#434343"/>
<path d="M198.777 230.527H185.392V198.181H168.484V187.154H215.694V198.181H198.777V230.527Z" fill="#434343"/>
<path d="M266.625 230.527H252.434L249.772 224.216H228.336L225.674 230.536H211.484L231.127 187.163H246.938L266.625 230.527ZM232.546 213.983H245.558L242.089 205.743C241.299 203.841 240.647 201.884 240.139 199.887C239.791 198.415 239.614 196.907 239.611 195.394V195.145H238.497V195.394C238.492 196.907 238.315 198.414 237.97 199.887C237.458 201.883 236.804 203.84 236.015 205.743L232.546 213.983Z" fill="#434343"/>
<path d="M320.904 230.527H304.917L300.27 219.381C299.853 218.239 299.041 217.284 297.981 216.688C296.986 216.17 295.584 215.912 293.766 215.912H284.841V230.536H271.461V187.154H300.583C306.585 187.154 311.098 188.403 314.122 190.901C317.146 193.399 318.663 196.776 318.675 201.032C318.695 203.255 318.164 205.448 317.127 207.415C316.146 209.295 314.714 210.902 312.96 212.092C311.255 213.259 309.261 213.934 307.198 214.043V215.158C309.595 215.244 311.537 215.788 313.024 216.804C314.512 217.82 315.871 219.642 317.114 222.287L320.904 230.527ZM298.907 208.033C300.973 208.033 302.554 207.558 303.648 206.609C304.194 206.131 304.625 205.535 304.91 204.867C305.194 204.199 305.324 203.476 305.29 202.751C305.318 202.026 305.185 201.305 304.901 200.638C304.617 199.971 304.189 199.375 303.648 198.892C302.556 197.921 300.976 197.435 298.907 197.435H284.099V208.028L298.907 208.033Z" fill="#434343"/>
<path d="M362.793 230.527H323.879V219.994H336.642V197.701H323.879V187.154H362.793V197.688H350.026V219.981H362.793V230.527Z" fill="#434343"/>
<path d="M370.407 230.527V187.154H391.226L409.57 222.532H410.745C410.126 220.704 409.651 218.83 409.326 216.928C408.966 214.623 408.8 212.291 408.828 209.957V187.154H421.656V230.527H400.897L382.497 195.145H381.378C382.744 199.195 383.394 203.451 383.299 207.724V230.527H370.407Z" fill="#434343"/>
<path d="M122.569 483.386V460.866H134.208C137.189 460.866 139.729 461.353 141.827 462.327C143.769 463.17 145.423 464.562 146.585 466.332C147.637 468.079 148.193 470.08 148.193 472.119C148.193 474.159 147.637 476.16 146.585 477.907C145.423 479.677 143.769 481.069 141.827 481.911C139.726 482.886 137.186 483.373 134.208 483.373L122.569 483.386ZM134.208 477.813C136.461 477.813 138.197 477.292 139.417 476.252C139.993 475.736 140.454 475.104 140.769 474.398C141.084 473.692 141.247 472.927 141.247 472.154C141.247 471.38 141.084 470.615 140.769 469.909C140.454 469.203 139.993 468.571 139.417 468.055C138.197 467.012 136.461 466.492 134.208 466.495H129.514V477.813H134.208Z" fill="#434343"/>
<path d="M170.349 483.386H150.156V477.92H156.78V466.344H150.156V460.866H170.349V466.332H163.725V477.907H170.349V483.386Z" fill="#434343"/>
<path d="M185.011 475.703V471.523H201.28V483.386H195.278L196.436 478.726H195.857C195.07 480.306 193.812 481.603 192.256 482.438C190.604 483.37 188.46 483.836 185.825 483.836C183.353 483.891 180.903 483.362 178.674 482.293C176.735 481.365 175.1 479.905 173.959 478.083C172.862 476.293 172.293 474.231 172.317 472.132C172.289 470.007 172.885 467.92 174.031 466.13C175.265 464.282 177.007 462.83 179.047 461.95C181.254 460.936 183.912 460.427 187.021 460.424C191.48 460.424 194.931 461.297 197.375 463.043C199.734 464.677 201.365 467.165 201.923 469.98H194.978C194.474 468.7 193.519 467.648 192.295 467.022C190.974 466.293 189.221 465.929 187.034 465.929C185.553 465.887 184.08 466.16 182.713 466.73C181.619 467.184 180.684 467.95 180.025 468.934C179.275 470.166 178.98 471.622 179.191 473.049C179.403 474.476 180.107 475.783 181.182 476.745C182.554 477.917 184.516 478.501 187.069 478.498C188.667 478.546 190.26 478.29 191.763 477.744C192.864 477.348 193.825 476.638 194.528 475.703H185.011Z" fill="#434343"/>
<path d="M224.559 483.386H204.367V477.92H210.991V466.344H204.367V460.866H224.559V466.332H217.936V477.907H224.559V483.386Z" fill="#434343"/>
<path d="M241.631 483.386H234.686V466.602H225.931V460.866H250.411V466.589H241.631V483.386Z" fill="#434343"/>
<path d="M276.999 483.386H269.66L268.275 480.106H257.129L255.748 483.386H248.383L258.578 460.878H266.775L276.999 483.386ZM259.315 474.812H266.067L264.267 470.524C263.859 469.536 263.52 468.521 263.255 467.485C263.076 466.722 262.983 465.941 262.981 465.157V465.028H262.402V465.157C262.4 465.941 262.31 466.722 262.132 467.485C261.864 468.521 261.525 469.536 261.116 470.524L259.315 474.812Z" fill="#434343"/>
<path d="M301.149 483.386H279.67V460.866H286.615V477.65H301.149V483.386Z" fill="#434343"/>
<path d="M19.3263 507.471V499.45H26.2672V521.957H19.3263V513.181H6.94514V521.957H0V499.45H6.94514V507.458L19.3263 507.471Z" fill="#434343"/>
<path d="M57.5546 521.97H50.1893L48.8089 518.69H37.6838L36.2991 521.97H28.9381L39.1286 499.45H47.3298L57.5546 521.97ZM39.8702 513.396H46.6225L44.8219 509.109C44.4118 508.121 44.0736 507.105 43.8101 506.069C43.6285 505.306 43.5365 504.525 43.5357 503.741V503.612H42.957V503.741C42.9562 504.525 42.8642 505.306 42.6826 506.069C42.4191 507.105 42.0809 508.121 41.6708 509.109L39.8702 513.396Z" fill="#434343"/>
<path d="M84.2077 499.45H91.1528V521.957H84.2077V514.789C83.2161 515.329 82.1499 515.719 81.0438 515.947C79.6621 516.222 78.2554 516.351 76.8467 516.332C73.2455 516.332 70.5603 515.464 68.7912 513.726C67.022 511.988 66.1375 509.373 66.1375 505.88V499.45H73.0826V505.88C73.0826 507.447 73.5284 508.626 74.4202 509.417C75.3119 510.209 76.7095 510.606 78.613 510.609C79.7137 510.631 80.8124 510.506 81.8798 510.236C82.7231 510.013 83.5142 509.625 84.2077 509.096V499.45Z" fill="#434343"/>
<path d="M118.71 499.45V504.787H102.891V508.165H116.46V512.881H102.891V516.611H118.71V521.948H95.9458V499.45H118.71Z" fill="#434343"/>
<path d="M120.412 521.906V516.169C120.902 516.323 121.413 516.4 121.926 516.397C122.955 516.397 123.699 516.171 124.159 515.719C124.622 515.291 124.914 514.476 125.042 513.34L126.684 499.45H149.35V521.957H142.405V505.173H132.759L131.73 514.532C131.445 517.147 130.651 519.113 129.351 520.431C128.051 521.748 126.154 522.407 123.662 522.407C122.558 522.43 121.458 522.261 120.412 521.906Z" fill="#434343"/>
<path d="M160.124 520.885C158.037 520.026 156.248 518.572 154.979 516.705C153.851 514.907 153.253 512.826 153.253 510.703C153.253 508.58 153.851 506.5 154.979 504.701C156.248 502.834 158.037 501.381 160.124 500.521C162.41 499.507 165.164 498.998 168.385 498.995C171.606 498.992 174.362 499.501 176.651 500.521C178.738 501.381 180.527 502.834 181.795 504.701C182.921 506.501 183.517 508.581 183.517 510.703C183.517 512.826 182.921 514.906 181.795 516.705C180.527 518.572 178.738 520.026 176.651 520.885C174.379 521.903 171.623 522.411 168.385 522.411C165.147 522.411 162.393 521.903 160.124 520.885ZM172.887 515.998C173.997 515.561 174.955 514.806 175.639 513.829C176.235 512.898 176.552 511.815 176.552 510.71C176.552 509.604 176.235 508.522 175.639 507.591C174.955 506.612 173.998 505.856 172.887 505.417C169.977 504.37 166.793 504.37 163.884 505.417C162.774 505.856 161.818 506.612 161.136 507.591C160.537 508.521 160.219 509.604 160.219 510.71C160.219 511.816 160.537 512.899 161.136 513.829C161.818 514.806 162.774 515.561 163.884 515.998C166.793 517.05 169.978 517.05 172.887 515.998Z" fill="#434343"/>
<path d="M207.711 510.459C209.534 510.608 210.928 511.159 211.891 512.114C212.376 512.606 212.754 513.193 213.003 513.837C213.251 514.482 213.365 515.171 213.336 515.861C213.336 519.934 210.528 521.97 204.912 521.97H187.42V499.45H205.074C207.581 499.45 209.452 499.933 210.686 500.899C211.213 501.337 211.647 501.876 211.962 502.484C212.278 503.092 212.469 503.757 212.524 504.44C212.579 505.123 212.497 505.81 212.283 506.46C212.069 507.111 211.728 507.713 211.278 508.23C210.441 509.11 209.252 509.624 207.711 509.773V510.459ZM194.108 504.706V508.273H203.304C203.914 508.318 204.521 508.148 205.019 507.792C205.21 507.631 205.362 507.429 205.462 507.2C205.562 506.971 205.609 506.722 205.597 506.472C205.607 506.227 205.56 505.984 205.459 505.761C205.359 505.538 205.208 505.341 205.019 505.186C204.516 504.842 203.911 504.678 203.304 504.723L194.108 504.706ZM203.968 516.71C204.621 516.758 205.271 516.576 205.803 516.195C206.006 516.021 206.166 515.804 206.272 515.558C206.377 515.313 206.425 515.047 206.412 514.78C206.427 514.509 206.38 514.237 206.275 513.986C206.17 513.735 206.008 513.511 205.803 513.331C205.271 512.95 204.621 512.768 203.968 512.817H194.108V516.71H203.968Z" fill="#434343"/>
<path d="M239.414 499.45V504.787H223.595V508.165H237.164V512.881H223.595V516.611H239.414V521.948H216.65V499.45H239.414Z" fill="#434343"/>
<path d="M260.764 499.45H267.709V521.957H260.764V514.789C259.771 515.33 258.704 515.72 257.596 515.947C256.214 516.222 254.808 516.352 253.399 516.332C249.798 516.332 247.114 515.464 245.348 513.726C243.581 511.988 242.697 509.373 242.694 505.88V499.45H249.639V505.88C249.639 507.447 250.084 508.626 250.972 509.417C251.861 510.209 253.26 510.606 255.169 510.609C256.269 510.632 257.366 510.506 258.432 510.236C259.277 510.013 260.069 509.625 260.764 509.096V499.45Z" fill="#434343"/>
<path d="M295.263 499.45V504.787H279.443V508.165H293.012V512.881H279.443V516.611H295.263V521.948H272.498V499.45H295.263Z" fill="#434343"/>
<path d="M304.639 520.885C302.578 520.016 300.816 518.563 299.571 516.705C298.457 514.902 297.866 512.823 297.866 510.703C297.866 508.583 298.457 506.505 299.571 504.701C300.816 502.844 302.578 501.391 304.639 500.521C306.876 499.507 309.582 498.998 312.754 498.995C315.367 498.933 317.968 499.359 320.424 500.251C322.356 500.948 324.081 502.12 325.44 503.66C326.629 505.046 327.403 506.74 327.673 508.547H320.728C320.442 507.475 319.645 506.553 318.336 505.782C317.027 505.01 315.169 504.624 312.763 504.624C311.272 504.582 309.789 504.85 308.407 505.409C307.319 505.855 306.386 506.61 305.723 507.582C305.135 508.516 304.823 509.597 304.823 510.701C304.823 511.805 305.135 512.886 305.723 513.82C306.386 514.79 307.319 515.545 308.407 515.989C309.789 516.55 311.272 516.819 312.763 516.778C315.163 516.778 317.021 516.392 318.336 515.621C319.651 514.849 320.448 513.927 320.728 512.855H327.673C327.408 514.669 326.64 516.373 325.457 517.773C324.104 519.315 322.376 520.483 320.441 521.164C317.976 522.044 315.371 522.464 312.754 522.403C309.582 522.414 306.876 521.908 304.639 520.885Z" fill="#434343"/>
<path d="M345.585 510.266L356.303 521.97H347.351L338.19 511.252V521.97H331.244V499.45H338.19V509.546L347 499.45H355.681L345.585 510.266Z" fill="#434343"/>
<path d="M362.883 520.885C360.796 520.026 359.007 518.572 357.739 516.705C356.611 514.907 356.012 512.826 356.012 510.703C356.012 508.58 356.611 506.5 357.739 504.701C359.007 502.834 360.796 501.381 362.883 500.521C365.156 499.507 367.909 498.998 371.145 498.995C374.38 498.992 377.135 499.501 379.41 500.521C381.497 501.381 383.286 502.834 384.555 504.701C385.68 506.501 386.277 508.581 386.277 510.703C386.277 512.826 385.68 514.906 384.555 516.705C383.286 518.572 381.497 520.026 379.41 520.885C377.138 521.903 374.383 522.411 371.145 522.411C367.906 522.411 365.153 521.903 362.883 520.885ZM375.646 515.998C376.756 515.562 377.712 514.807 378.394 513.829C378.993 512.899 379.311 511.816 379.311 510.71C379.311 509.604 378.993 508.521 378.394 507.591C377.713 506.611 376.757 505.855 375.646 505.417C372.737 504.37 369.553 504.37 366.643 505.417C365.533 505.856 364.578 506.612 363.895 507.591C363.296 508.521 362.978 509.604 362.978 510.71C362.978 511.816 363.296 512.899 363.895 513.829C364.578 514.806 365.534 515.561 366.643 515.998C369.552 517.05 372.737 517.05 375.646 515.998Z" fill="#434343"/>
<path d="M390.18 521.97V499.45H400.897L404.726 510.48C405.091 511.552 405.328 512.663 405.433 513.79V514.112H406.012V513.79C406.117 512.663 406.354 511.552 406.719 510.48L410.543 499.45H421.283V521.957H414.65V510.673C414.634 509.33 414.704 507.987 414.86 506.652C414.995 505.621 415.204 504.601 415.486 503.6H414.908L409.634 518.262H401.853L396.58 503.6H396.001C396.298 504.615 396.519 505.651 396.662 506.699C396.814 508.018 396.883 509.346 396.867 510.673V521.957L390.18 521.97Z" fill="#434343"/>
<path d="M275.615 150.709C275.34 150.418 268.777 143.58 260.464 143.58C252.151 143.58 245.588 150.418 245.313 150.709C245.057 150.981 244.915 151.34 244.915 151.713C244.915 152.086 245.057 152.445 245.313 152.716C245.588 153.007 252.147 159.85 260.464 159.85C268.781 159.85 275.34 152.99 275.615 152.716C275.871 152.445 276.013 152.086 276.013 151.713C276.013 151.34 275.871 150.981 275.615 150.709ZM256.846 147.014C256.125 147.567 255.542 148.279 255.14 149.093C254.739 149.908 254.53 150.804 254.53 151.713C254.53 152.621 254.739 153.517 255.14 154.332C255.542 155.147 256.125 155.858 256.846 156.411C253.133 155.382 250.059 153.055 248.516 151.696C250.059 150.371 253.133 148.043 256.846 147.014ZM264.087 156.411C264.807 155.858 265.39 155.147 265.792 154.332C266.194 153.517 266.402 152.621 266.402 151.713C266.402 150.804 266.194 149.908 265.792 149.093C265.39 148.279 264.807 147.567 264.087 147.014C267.799 148.043 270.869 150.371 272.417 151.73C270.865 153.05 267.795 155.382 264.087 156.411Z" fill="white"/>
<path d="M364.358 318.812C360.525 318.812 357.413 321.101 357.413 323.931C357.413 326.76 360.525 329.045 364.358 329.045C368.191 329.045 371.303 326.756 371.303 323.931C371.303 321.105 368.195 318.812 364.358 318.812Z" fill="white"/>
<path d="M359.728 314.975C359.728 312.831 358.176 311.116 356.256 311.116C354.335 311.116 352.783 312.831 352.783 314.975C352.783 317.118 354.339 318.812 356.256 318.812C358.172 318.812 359.728 317.093 359.728 314.975Z" fill="white"/>
<path d="M372.461 318.812C374.379 318.812 375.933 317.094 375.933 314.975C375.933 312.856 374.379 311.138 372.461 311.138C370.543 311.138 368.988 312.856 368.988 314.975C368.988 317.094 370.543 318.812 372.461 318.812Z" fill="white"/>
<path d="M364.358 316.252C366.279 316.252 367.831 314.538 367.831 312.415C367.831 310.293 366.279 308.557 364.358 308.557C362.438 308.557 360.886 310.272 360.886 312.415C360.886 314.559 362.442 316.252 364.358 316.252Z" fill="white"/>
<path d="M323.956 363.638C323.352 363.038 321.333 362.811 320.364 362.849C319.956 358.322 320.364 355.471 312.981 355.471C308.077 355.471 304.861 357.207 304.861 362.112C304.861 364.907 305.093 368.894 307.112 370.523C307.061 370.683 307.034 370.849 307.031 371.016V373.966C307.032 374.406 307.199 374.83 307.498 375.152C307.798 375.475 308.208 375.673 308.647 375.706V378.446C308.647 379.007 308.87 379.545 309.266 379.942C309.662 380.339 310.2 380.562 310.761 380.564H314.619C314.897 380.564 315.172 380.509 315.429 380.402C315.686 380.296 315.92 380.14 316.117 379.943C316.313 379.747 316.469 379.513 316.576 379.256C316.682 378.999 316.737 378.724 316.737 378.446V375.706C317.175 375.672 317.584 375.473 317.883 375.151C318.182 374.828 318.348 374.405 318.349 373.966V373.644C319.812 373.184 321.137 372.368 322.207 371.269C324.771 368.692 325.568 365.263 323.956 363.638Z" fill="white"/>
<path d="M218.643 385.211C218.643 383.567 218.223 381.95 217.422 380.513C216.622 379.077 215.467 377.87 214.068 377.005C212.67 376.141 211.073 375.648 209.431 375.574C207.788 375.501 206.154 375.848 204.683 376.583C203.213 377.318 201.954 378.417 201.028 379.776C200.102 381.134 199.538 382.707 199.39 384.344C199.242 385.982 199.516 387.63 200.184 389.132C200.853 390.635 201.894 391.941 203.21 392.928V396.932C203.21 397.168 203.256 397.401 203.346 397.619C203.437 397.837 203.569 398.035 203.736 398.202C203.903 398.369 204.101 398.501 204.318 398.591C204.536 398.682 204.77 398.728 205.006 398.728H212.989C213.465 398.727 213.921 398.537 214.257 398.201C214.594 397.864 214.784 397.408 214.785 396.932V392.915C215.983 392.019 216.955 390.856 217.625 389.519C218.294 388.181 218.643 386.706 218.643 385.211Z" fill="white"/>
<path d="M213.799 400.644H204.153C203.897 400.644 203.652 400.746 203.471 400.927C203.29 401.108 203.188 401.353 203.188 401.609C203.188 401.865 203.29 402.11 203.471 402.291C203.652 402.472 203.897 402.574 204.153 402.574H213.799C214.055 402.574 214.3 402.472 214.481 402.291C214.662 402.11 214.763 401.865 214.763 401.609C214.763 401.353 214.662 401.108 214.481 400.927C214.3 400.746 214.055 400.644 213.799 400.644Z" fill="white"/>
<path d="M213.799 404.503H204.153C203.897 404.503 203.652 404.604 203.471 404.785C203.29 404.966 203.188 405.212 203.188 405.467C203.188 405.723 203.29 405.969 203.471 406.149C203.652 406.33 203.897 406.432 204.153 406.432H213.799C214.055 406.432 214.3 406.33 214.481 406.149C214.662 405.969 214.763 405.723 214.763 405.467C214.763 405.212 214.662 404.966 214.481 404.785C214.3 404.604 214.055 404.503 213.799 404.503Z" fill="white"/>
<path d="M121.866 393.241C121.549 393.33 121.21 393.298 120.914 393.152C120.619 393.006 120.389 392.755 120.268 392.448C120.148 392.142 120.145 391.801 120.261 391.493C120.377 391.185 120.604 390.93 120.897 390.78L135.692 383.17C135.926 383.051 136.191 383.003 136.453 383.034C136.714 383.064 136.961 383.171 137.162 383.342L139.451 385.292L156.287 376.182C156.44 376.098 156.609 376.044 156.783 376.025C156.957 376.006 157.133 376.021 157.301 376.07C157.47 376.118 157.627 376.2 157.763 376.309C157.9 376.419 158.014 376.554 158.098 376.707C158.183 376.861 158.236 377.029 158.255 377.203C158.275 377.377 158.26 377.553 158.211 377.722C158.162 377.89 158.081 378.047 157.971 378.184C157.862 378.32 157.727 378.434 157.573 378.519L139.936 388.066C139.7 388.193 139.43 388.246 139.163 388.218C138.896 388.19 138.644 388.081 138.44 387.907L136.133 385.944L122.11 393.129C122.033 393.174 121.951 393.212 121.866 393.241Z" fill="white"/>
<path d="M155.464 374.819L158.332 379.8C158.414 379.945 158.533 380.065 158.676 380.149C158.82 380.232 158.983 380.276 159.149 380.276C159.315 380.276 159.478 380.232 159.621 380.149C159.765 380.065 159.883 379.945 159.965 379.8L162.842 374.656C162.923 374.51 162.963 374.346 162.959 374.179C162.956 374.013 162.908 373.85 162.82 373.709C162.733 373.567 162.61 373.451 162.463 373.372C162.316 373.294 162.151 373.256 161.985 373.263L156.244 373.447C156.087 373.456 155.935 373.503 155.802 373.586C155.668 373.669 155.558 373.784 155.48 373.92C155.402 374.057 155.36 374.21 155.357 374.367C155.355 374.524 155.391 374.68 155.464 374.819Z" fill="white"/>
<path d="M115.405 50.901H113.84L112.048 45.5292C112.048 45.0547 111.86 44.5995 111.525 44.2636C111.19 43.9277 110.735 43.7384 110.261 43.7372C110.025 43.7367 109.791 43.7826 109.573 43.8724C109.355 43.9622 109.157 44.0941 108.991 44.2606C108.824 44.427 108.691 44.6248 108.601 44.8425C108.511 45.0602 108.464 45.2935 108.464 45.5292V48.213H105.36C104.284 48.213 103.251 48.6407 102.49 49.4021C101.728 50.1635 101.3 51.1961 101.3 52.2729V54.9009C101.3 55.4338 101.405 55.9616 101.61 56.4539C101.814 56.9462 102.113 57.3935 102.49 57.7702C102.867 58.1468 103.314 58.4455 103.807 58.649C104.3 58.8526 104.827 58.9571 105.36 58.9565H115.401C115.666 58.9571 115.928 58.9053 116.173 58.8043C116.417 58.7032 116.64 58.5548 116.827 58.3676C117.014 58.1804 117.162 57.958 117.263 57.7133C117.365 57.4686 117.416 57.2063 117.416 56.9416V52.9159C117.416 52.3823 117.204 51.8704 116.827 51.4927C116.45 51.1149 115.939 50.9021 115.405 50.901Z" fill="white"/>
<path d="M44.7361 150.049H42.9955C42.7993 149.287 42.4962 148.557 42.0952 147.88L43.3299 146.65C43.6449 146.334 43.8217 145.906 43.8217 145.46C43.8217 145.014 43.6449 144.586 43.3299 144.27L42.7297 143.67C42.4139 143.355 41.9861 143.178 41.54 143.178C41.094 143.178 40.6662 143.355 40.3504 143.67L39.12 144.905C38.443 144.504 37.7126 144.201 36.9507 144.004V142.264C36.9507 141.817 36.7732 141.388 36.4572 141.072C36.1412 140.757 35.7127 140.579 35.2659 140.579H34.4084C34.1874 140.579 33.9685 140.623 33.7643 140.707C33.5601 140.792 33.3747 140.916 33.2186 141.073C33.0625 141.229 32.9388 141.415 32.8546 141.619C32.7704 141.824 32.7273 142.043 32.7279 142.264V144.004C31.9693 144.203 31.242 144.506 30.5672 144.905L29.3368 143.67C29.0209 143.355 28.5931 143.178 28.1471 143.178C27.7011 143.178 27.2732 143.355 26.9574 143.67L26.3615 144.27C26.2045 144.426 26.0799 144.611 25.9949 144.816C25.9099 145.02 25.8661 145.239 25.8661 145.46C25.8661 145.681 25.9099 145.9 25.9949 146.104C26.0799 146.308 26.2045 146.494 26.3615 146.65L27.5919 147.88C27.191 148.557 26.8879 149.287 26.6916 150.049H24.951C24.73 150.049 24.5111 150.093 24.3069 150.178C24.1027 150.262 23.9173 150.386 23.7612 150.543C23.6051 150.7 23.4814 150.885 23.3972 151.09C23.313 151.294 23.2699 151.513 23.2705 151.734V152.592C23.2699 152.812 23.313 153.031 23.3973 153.235C23.4815 153.439 23.6053 153.625 23.7614 153.781C23.9176 153.937 24.1031 154.061 24.3072 154.145C24.5114 154.23 24.7302 154.273 24.951 154.272H26.6916C26.8879 155.034 27.191 155.764 27.5919 156.441L26.3615 157.676C26.2045 157.832 26.0799 158.017 25.9949 158.221C25.9099 158.426 25.8661 158.645 25.8661 158.866C25.8661 159.087 25.9099 159.306 25.9949 159.51C26.0799 159.714 26.2045 159.9 26.3615 160.055L26.9574 160.651C27.2732 160.966 27.7011 161.143 28.1471 161.143C28.5931 161.143 29.0209 160.966 29.3368 160.651L30.5672 159.421C31.246 159.821 31.9777 160.124 32.7407 160.321V162.053C32.7402 162.274 32.7833 162.493 32.8675 162.697C32.9518 162.901 33.0755 163.087 33.2317 163.243C33.3879 163.399 33.5733 163.523 33.7775 163.607C33.9816 163.691 34.2004 163.734 34.4213 163.734H35.2787C35.7229 163.731 36.1482 163.553 36.4615 163.239C36.7748 162.924 36.9507 162.497 36.9507 162.053V160.295C37.7126 160.099 38.443 159.796 39.12 159.395L40.3504 160.626C40.6662 160.941 41.094 161.117 41.54 161.117C41.9861 161.117 42.4139 160.941 42.7297 160.626L43.3299 160.03C43.6449 159.714 43.8217 159.286 43.8217 158.84C43.8217 158.394 43.6449 157.966 43.3299 157.65L42.0952 156.416C42.4962 155.739 42.7993 155.008 42.9955 154.246H44.7361C44.9572 154.247 45.1761 154.204 45.3805 154.12C45.5849 154.035 45.7707 153.912 45.9272 153.756C46.0837 153.6 46.2079 153.414 46.2926 153.21C46.3773 153.006 46.4209 152.787 46.4209 152.566V151.708C46.4142 151.266 46.2337 150.844 45.9185 150.534C45.6032 150.223 45.1785 150.049 44.7361 150.049Z" fill="white"/>
<path d="M69.7215 97.8664C69.7217 96.2209 69.2788 94.6056 68.4391 93.1904C67.5995 91.7752 66.3942 90.6123 64.9499 89.8238L60.5642 97.8664H69.7215Z" fill="white"/>
<path d="M366.472 103.633L362.185 99.3455C362.117 99.2758 362.043 99.214 361.962 99.1611C362.825 97.9149 363.208 96.3986 363.041 94.8919C362.873 93.3853 362.167 91.99 361.051 90.9635C359.936 89.9371 358.487 89.3487 356.971 89.307C355.456 89.2653 353.977 89.773 352.806 90.7366C351.636 91.7001 350.854 93.0544 350.604 94.5496C350.354 96.0447 350.653 97.5798 351.446 98.8717C352.239 100.163 353.473 101.125 354.92 101.578C356.366 102.032 357.928 101.947 359.317 101.339C359.386 101.542 359.502 101.725 359.655 101.875L363.942 106.162C364.212 106.429 364.576 106.579 364.956 106.579C365.336 106.579 365.7 106.429 365.97 106.162L366.476 105.656C366.744 105.387 366.893 105.023 366.893 104.643C366.892 104.264 366.74 103.9 366.472 103.633ZM353.207 95.6028C353.207 94.8948 353.417 94.2027 353.811 93.614C354.204 93.0253 354.763 92.5665 355.417 92.2955C356.071 92.0246 356.791 91.9537 357.486 92.0918C358.18 92.23 358.818 92.5709 359.318 93.0715C359.819 93.5722 360.16 94.21 360.298 94.9044C360.436 95.5988 360.365 96.3186 360.094 96.9727C359.823 97.6268 359.365 98.1859 358.776 98.5793C358.187 98.9726 357.495 99.1826 356.787 99.1826C355.838 99.1826 354.927 98.8054 354.256 98.1341C353.585 97.4627 353.207 96.5522 353.207 95.6028Z" fill="white"/>
<path d="M206.163 34.79V17.9587C206.164 17.7721 206.215 17.5891 206.31 17.4285C206.406 17.2679 206.542 17.1357 206.705 17.0453C206.868 16.9549 207.053 16.9097 207.239 16.9142C207.426 16.9188 207.608 16.973 207.767 17.0713L221.215 25.4869C221.366 25.5809 221.49 25.7117 221.576 25.867C221.663 26.0222 221.708 26.1968 221.708 26.3744C221.708 26.5519 221.663 26.7265 221.576 26.8818C221.49 27.037 221.366 27.1678 221.215 27.2618L207.754 35.6774C207.596 35.7738 207.415 35.8265 207.23 35.8301C207.044 35.8337 206.862 35.788 206.7 35.6977C206.538 35.6075 206.403 35.4759 206.309 35.3164C206.215 35.1569 206.164 34.9752 206.163 34.79Z" fill="white"/>
<path d="M285.707 28.0892H283.212C282.848 28.1135 282.509 28.2803 282.268 28.5533C282.028 28.8263 281.904 29.1834 281.925 29.5468V41.8809C281.905 42.2436 282.029 42.5996 282.27 42.8717C282.511 43.1438 282.849 43.3099 283.212 43.3342H285.707C286.069 43.3099 286.407 43.1438 286.648 42.8717C286.889 42.5996 287.013 42.2436 286.993 41.8809V29.5468C287.014 29.1834 286.891 28.8263 286.65 28.5533C286.409 28.2803 286.07 28.1135 285.707 28.0892Z" fill="white"/>
<path d="M275.546 28.0892H273.051C272.688 28.1135 272.349 28.2803 272.108 28.5533C271.867 28.8263 271.744 29.1834 271.765 29.5468V41.8809C271.745 42.2436 271.869 42.5996 272.109 42.8717C272.35 43.1438 272.689 43.3099 273.051 43.3342H275.546C275.909 43.3099 276.247 43.1438 276.488 42.8717C276.728 42.5996 276.852 42.2436 276.832 41.8809V29.5468C276.853 29.1834 276.73 28.8263 276.489 28.5533C276.248 28.2803 275.909 28.1135 275.546 28.0892Z" fill="white"/>
<path d="M164.604 24.6552H154.199C153.065 24.6552 152.146 25.5746 152.146 26.7088V37.1136C152.146 38.2478 153.065 39.1672 154.199 39.1672H164.604C165.738 39.1672 166.658 38.2478 166.658 37.1136V26.7088C166.658 25.5746 165.738 24.6552 164.604 24.6552Z" fill="white"/>
<path d="M109.167 96.3188C105.952 96.3188 103.058 97.6349 101.618 99.7485C101.431 100.036 101.364 100.386 101.432 100.722C101.5 101.058 101.697 101.355 101.981 101.547C102.264 101.74 102.612 101.814 102.95 101.754C103.288 101.693 103.588 101.503 103.787 101.223C104.73 99.8342 106.844 98.9339 109.167 98.9339C111.491 98.9339 113.604 99.8342 114.548 101.223C114.669 101.4 114.831 101.546 115.021 101.646C115.211 101.746 115.422 101.798 115.637 101.798C115.898 101.798 116.154 101.719 116.37 101.57C116.657 101.375 116.855 101.073 116.92 100.731C116.986 100.39 116.912 100.036 116.717 99.7485C115.281 97.6349 112.387 96.3188 109.167 96.3188Z" fill="white"/>
<path d="M119.555 95.3713C117.587 92.4818 113.609 90.6812 109.167 90.6812C104.726 90.6812 100.747 92.4818 98.7839 95.3713C98.6826 95.5136 98.6108 95.6747 98.5726 95.8451C98.5344 96.0155 98.5306 96.1918 98.5615 96.3637C98.5923 96.5356 98.6572 96.6996 98.7523 96.8461C98.8473 96.9926 98.9707 97.1186 99.1151 97.2168C99.2596 97.315 99.4221 97.3834 99.5933 97.4179C99.7645 97.4524 99.9409 97.4524 100.112 97.4179C100.283 97.3834 100.446 97.315 100.59 97.2168C100.735 97.1186 100.858 96.9926 100.953 96.8461C102.415 94.7025 105.639 93.3049 109.167 93.3049C112.696 93.3049 115.924 94.6939 117.381 96.8461C117.577 97.1343 117.879 97.333 118.221 97.3986C118.563 97.4641 118.917 97.391 119.206 97.1955C119.494 96.9999 119.693 96.6979 119.758 96.3558C119.824 96.0137 119.751 95.6595 119.555 95.3713Z" fill="white"/>
<path d="M109.167 101.922C108.602 101.923 108.049 102.091 107.58 102.406C107.11 102.721 106.744 103.168 106.528 103.69C106.313 104.213 106.257 104.788 106.368 105.342C106.478 105.896 106.751 106.406 107.151 106.805C107.551 107.205 108.061 107.476 108.615 107.586C109.17 107.696 109.745 107.64 110.267 107.423C110.789 107.206 111.235 106.84 111.549 106.37C111.863 105.9 112.031 105.347 112.031 104.782C112.031 104.406 111.957 104.033 111.813 103.686C111.669 103.339 111.458 103.024 111.192 102.758C110.926 102.492 110.61 102.282 110.263 102.138C109.915 101.995 109.543 101.921 109.167 101.922Z" fill="white"/>
<path d="M90.9942 147.477C89.4894 147.477 88.2675 148.484 88.2675 149.728V158.165C88.2675 159.408 89.4894 160.416 90.9942 160.416C92.4946 160.416 93.7165 159.408 93.7165 158.165V149.723C93.7165 148.48 92.4946 147.477 90.9942 147.477Z" fill="white"/>
<path d="M90.9942 145.432C91.5336 145.432 92.0609 145.272 92.5094 144.972C92.9579 144.672 93.3074 144.246 93.5136 143.748C93.7199 143.249 93.7736 142.701 93.6681 142.172C93.5625 141.643 93.3024 141.157 92.9206 140.776C92.5389 140.395 92.0527 140.135 91.5235 140.031C90.9943 139.926 90.4459 139.981 89.9478 140.188C89.4496 140.395 89.0241 140.745 88.725 141.194C88.4259 141.643 88.2667 142.17 88.2676 142.71C88.2687 143.432 88.5565 144.125 89.0677 144.635C89.5789 145.145 90.2718 145.432 90.9942 145.432Z" fill="white"/>
<path d="M395.538 264.966H395.135C395.135 261.999 393.116 259.594 390.621 259.594C388.765 259.594 387.191 260.927 386.48 262.831C385.952 262.476 385.332 262.285 384.696 262.282C383.11 262.282 381.76 263.482 381.267 265.163C379.83 265.703 378.789 267.306 378.789 269.188V269.476C378.789 271.808 380.375 273.694 382.334 273.694H395.556C397.515 273.694 399.101 271.808 399.101 269.476V269.188C399.084 266.856 397.498 264.966 395.538 264.966Z" fill="white"/>
<path d="M259.727 380.186C259.572 380.214 259.424 380.273 259.291 380.358C259.158 380.444 259.044 380.554 258.954 380.684C258.865 380.813 258.801 380.959 258.768 381.113C258.734 381.267 258.732 381.427 258.76 381.582C258.788 381.737 258.847 381.885 258.932 382.017C259.017 382.15 259.128 382.264 259.257 382.354C259.387 382.444 259.533 382.507 259.687 382.541C259.841 382.574 260 382.577 260.155 382.548C261.669 382.257 263.619 383.046 265.124 384.555C266.629 386.064 267.422 388.015 267.131 389.524C267.094 389.717 267.105 389.916 267.163 390.103C267.221 390.291 267.325 390.462 267.465 390.6C267.633 390.771 267.85 390.886 268.087 390.93C268.241 390.96 268.401 390.959 268.555 390.927C268.71 390.895 268.856 390.834 268.987 390.745C269.117 390.657 269.229 390.544 269.316 390.412C269.403 390.28 269.463 390.133 269.493 389.978C269.921 387.667 268.914 384.941 266.826 382.853C264.738 380.765 262.033 379.745 259.727 380.186Z" fill="white"/>
<path d="M270.517 379.2C267.641 376.319 263.894 374.913 260.743 375.509C260.444 375.584 260.186 375.771 260.021 376.03C259.855 376.29 259.796 376.603 259.854 376.905C259.912 377.207 260.083 377.475 260.333 377.655C260.583 377.835 260.892 377.912 261.197 377.871C263.538 377.442 266.53 378.613 268.82 380.902C271.109 383.191 272.297 386.18 271.846 388.52C271.806 388.679 271.799 388.845 271.825 389.007C271.852 389.169 271.91 389.323 271.999 389.462C272.087 389.6 272.202 389.719 272.338 389.811C272.473 389.903 272.626 389.966 272.787 389.997C272.948 390.028 273.114 390.026 273.274 389.991C273.434 389.956 273.585 389.888 273.718 389.792C273.851 389.697 273.963 389.575 274.048 389.434C274.132 389.294 274.187 389.137 274.209 388.975C274.805 385.841 273.381 382.081 270.517 379.2Z" fill="white"/>
<path d="M263.251 389.434C263.252 388.911 263.121 388.397 262.871 387.938C262.622 387.479 262.261 387.09 261.822 386.806C261.383 386.523 260.88 386.354 260.359 386.316C259.837 386.278 259.315 386.371 258.839 386.587L256.747 384.495C256.205 385.036 255.774 385.68 255.481 386.388C255.187 387.096 255.036 387.855 255.036 388.621C255.036 389.388 255.187 390.147 255.481 390.855C255.774 391.563 256.205 392.206 256.747 392.747C256.829 392.833 256.914 392.91 257 392.988V395.796C257 396.18 257.153 396.549 257.424 396.82C257.696 397.092 258.065 397.245 258.449 397.245H258.672C258.863 397.245 259.052 397.208 259.228 397.136C259.404 397.063 259.564 396.956 259.699 396.822C259.834 396.687 259.942 396.527 260.015 396.351C260.088 396.175 260.125 395.986 260.125 395.796V394.415C261.012 394.531 261.913 394.441 262.759 394.152C263.605 393.864 264.373 393.385 265.004 392.752L262.972 390.724C263.155 390.318 263.25 389.879 263.251 389.434Z" fill="white"/>
<path d="M77.8327 326.906L77.8027 326.88L73.9014 324.179V314.958C73.9187 313.826 73.4875 312.733 72.702 311.918C71.9165 311.102 70.8404 310.631 69.7086 310.606H59.7968C58.665 310.631 57.5889 311.102 56.8034 311.918C56.0179 312.733 55.5867 313.826 55.604 314.958V323.896C55.604 323.991 55.604 324.085 55.604 324.175L51.6169 326.88L51.5869 326.906C51.3752 327.176 51.2424 327.499 51.2033 327.84C51.1643 328.181 51.2205 328.526 51.3657 328.837C51.511 329.148 51.7396 329.413 52.0261 329.601C52.3126 329.79 52.6458 329.896 52.9888 329.907H76.4308C76.7738 329.896 77.107 329.79 77.3936 329.601C77.6801 329.413 77.9087 329.148 78.0539 328.837C78.1991 328.526 78.2553 328.181 78.2163 327.84C78.1772 327.499 78.0445 327.176 77.8327 326.906ZM58.2191 315.819C58.2191 314.439 58.1934 313.32 59.5053 313.32H69.9615C71.2906 313.32 71.2691 314.439 71.2691 315.819V318.962C71.2691 320.342 71.2906 321.461 69.9615 321.461H59.5224C58.1934 321.461 58.2363 320.342 58.2363 318.962L58.2191 315.819Z" fill="white"/>
<path d="M184.61 94.6457C185.112 94.6457 185.508 94.7768 185.799 95.0392C186.095 95.296 186.242 95.6226 186.242 96.0189C186.242 96.4152 186.095 96.7446 185.799 97.0069C185.508 97.2637 185.112 97.3921 184.61 97.3921H179.041C178.567 97.3921 178.176 97.247 177.869 96.9567C177.562 96.6608 177.409 96.2924 177.409 95.8514V86.758C177.409 86.317 177.562 85.9514 177.869 85.6611C178.176 85.3653 178.567 85.2173 179.041 85.2173C179.516 85.2173 179.904 85.3653 180.205 85.6611C180.512 85.9514 180.666 86.317 180.666 86.758V94.6457H184.61ZM190.781 88.1313V90.0152H194.038C194.54 90.0152 194.937 90.1464 195.227 90.4088C195.523 90.6656 195.671 90.9921 195.671 91.3885C195.671 91.7848 195.523 92.1141 195.227 92.3765C194.937 92.6333 194.54 92.7617 194.038 92.7617H190.781V94.6457H195.755C196.257 94.6457 196.653 94.7768 196.944 95.0392C197.239 95.296 197.387 95.6226 197.387 96.0189C197.387 96.4152 197.239 96.7446 196.944 97.0069C196.653 97.2637 196.257 97.3921 195.755 97.3921H189.156C188.682 97.3921 188.291 97.247 187.984 96.9567C187.677 96.6608 187.524 96.2924 187.524 95.8514V86.9339C187.524 86.4929 187.677 86.1245 187.984 85.8286C188.291 85.5327 188.682 85.3848 189.156 85.3848H195.587C196.089 85.3848 196.486 85.516 196.776 85.7784C197.066 86.0351 197.211 86.3617 197.211 86.758C197.211 87.1544 197.066 87.4837 196.776 87.7461C196.486 88.0029 196.089 88.1313 195.587 88.1313H190.781ZM205.015 92.0751L203.902 88.7341H203.734L202.621 92.0751H205.015ZM201.415 96.0189C201.231 96.5324 200.999 96.9176 200.72 97.1744C200.441 97.4312 200.072 97.5596 199.615 97.5596C199.14 97.5596 198.749 97.4144 198.442 97.1242C198.141 96.8283 197.99 96.4599 197.99 96.0189C197.99 95.8291 198.007 95.6505 198.04 95.483C198.074 95.3099 198.11 95.1732 198.149 95.0727C198.188 94.9666 198.25 94.8243 198.333 94.6457L201.331 86.8418C201.56 86.2501 201.867 85.8035 202.252 85.502C202.643 85.195 203.165 85.0415 203.818 85.0415C204.471 85.0415 204.99 85.195 205.375 85.502C205.766 85.8035 206.076 86.2501 206.305 86.8418L209.303 94.6457C209.386 94.8243 209.448 94.9666 209.487 95.0727C209.526 95.1732 209.562 95.3099 209.596 95.483C209.629 95.6505 209.646 95.8291 209.646 96.0189C209.646 96.4599 209.492 96.8283 209.185 97.1242C208.884 97.4144 208.496 97.5596 208.021 97.5596C207.564 97.5596 207.192 97.4284 206.908 97.166C206.623 96.9037 206.394 96.5213 206.221 96.0189L205.794 94.8215H201.85L201.415 96.0189ZM221.134 92.4184C221.134 93.3897 220.916 94.2493 220.481 94.9973C220.051 95.7454 219.426 96.3315 218.605 96.7557C217.785 97.18 216.827 97.3921 215.733 97.3921H212.652C212.177 97.3921 211.787 97.247 211.48 96.9567C211.173 96.6608 211.019 96.2924 211.019 95.8514V86.9339C211.019 86.4929 211.173 86.1245 211.48 85.8286C211.787 85.5327 212.177 85.3848 212.652 85.3848H215.733C216.827 85.3848 217.785 85.5969 218.605 86.0212C219.426 86.4454 220.051 87.0316 220.481 87.7796C220.916 88.5276 221.134 89.3872 221.134 90.3585V92.4184ZM214.276 88.1313V94.6457H215.733C216.392 94.6457 216.9 94.4559 217.257 94.0763C217.614 93.6967 217.793 93.1441 217.793 92.4184V90.3585C217.793 89.6329 217.614 89.0802 217.257 88.7006C216.9 88.321 216.392 88.1313 215.733 88.1313H214.276Z" fill="white"/>
<path d="M213.969 322.121C213.969 321.68 214.12 321.314 214.421 321.024C214.728 320.728 215.119 320.58 215.593 320.58C216.068 320.58 216.459 320.728 216.766 321.024C217.073 321.314 217.226 321.68 217.226 322.121V327.781C217.226 329.434 216.782 330.734 215.895 331.683C215.007 332.627 213.821 333.098 212.336 333.098C211.862 333.098 211.471 332.953 211.164 332.663C210.862 332.367 210.712 331.999 210.712 331.558C210.712 331.267 210.77 331.025 210.888 330.829C211.01 330.628 211.167 330.475 211.357 330.369C211.552 330.257 211.764 330.157 211.993 330.067C212.227 329.978 212.459 329.88 212.688 329.774C212.917 329.668 213.126 329.543 213.316 329.397C213.511 329.247 213.668 329.037 213.785 328.769C213.908 328.496 213.969 328.167 213.969 327.781V322.121ZM230.079 328.125C230.079 329.096 229.861 329.956 229.426 330.704C228.996 331.452 228.371 332.038 227.55 332.462C226.73 332.886 225.773 333.098 224.678 333.098C223.584 333.098 222.627 332.886 221.806 332.462C220.986 332.038 220.358 331.452 219.922 330.704C219.493 329.956 219.278 329.096 219.278 328.125V325.378C219.278 324.407 219.493 323.547 219.922 322.799C220.358 322.051 220.986 321.465 221.806 321.041C222.627 320.617 223.584 320.405 224.678 320.405C225.773 320.405 226.73 320.617 227.55 321.041C228.371 321.465 228.996 322.051 229.426 322.799C229.861 323.547 230.079 324.407 230.079 325.378V328.125ZM226.738 325.378C226.738 324.653 226.56 324.1 226.202 323.72C225.845 323.341 225.337 323.151 224.678 323.151C224.02 323.151 223.512 323.341 223.154 323.72C222.797 324.1 222.619 324.653 222.619 325.378V328.125C222.619 328.85 222.797 329.403 223.154 329.783C223.512 330.162 224.02 330.352 224.678 330.352C225.337 330.352 225.845 330.162 226.202 329.783C226.56 329.403 226.738 328.85 226.738 328.125V325.378ZM238.905 321.434C239.273 320.865 239.759 320.58 240.362 320.58C240.836 320.58 241.227 320.728 241.534 321.024C241.841 321.314 241.994 321.68 241.994 322.121C241.994 322.233 241.983 322.342 241.961 322.448C241.939 322.554 241.913 322.646 241.885 322.724C241.858 322.796 241.816 322.88 241.76 322.975C241.71 323.064 241.668 323.131 241.634 323.176C241.606 323.215 241.562 323.274 241.5 323.352C241.439 323.43 241.403 323.477 241.391 323.494L238.051 328.301V331.382C238.051 331.823 237.897 332.191 237.59 332.487C237.283 332.777 236.892 332.923 236.418 332.923C235.943 332.923 235.553 332.777 235.245 332.487C234.944 332.191 234.793 331.823 234.793 331.382V328.301L231.444 323.494C231.433 323.477 231.397 323.43 231.335 323.352C231.274 323.274 231.226 323.215 231.193 323.176C231.165 323.131 231.123 323.064 231.067 322.975C231.017 322.88 230.978 322.796 230.95 322.724C230.922 322.646 230.897 322.554 230.875 322.448C230.852 322.342 230.841 322.233 230.841 322.121C230.841 321.68 230.995 321.314 231.302 321.024C231.609 320.728 231.999 320.58 232.474 320.58C233.077 320.58 233.562 320.865 233.931 321.434L236.334 325.127H236.501L238.905 321.434Z" fill="white"/>
<path d="M140.661 272.648C140.661 273.089 140.507 273.458 140.2 273.754C139.899 274.044 139.511 274.189 139.036 274.189C138.562 274.189 138.171 274.044 137.864 273.754C137.557 273.458 137.404 273.089 137.404 272.648V263.387C137.404 262.946 137.557 262.581 137.864 262.291C138.171 261.995 138.562 261.847 139.036 261.847C139.511 261.847 139.899 261.995 140.2 262.291C140.507 262.581 140.661 262.946 140.661 263.387V272.648ZM153.095 269.048C153.095 270.019 152.877 270.879 152.442 271.627C152.012 272.375 151.387 272.961 150.566 273.385C149.746 273.809 148.788 274.021 147.694 274.021H144.613C144.138 274.021 143.748 273.876 143.441 273.586C143.134 273.29 142.98 272.922 142.98 272.481V263.563C142.98 263.122 143.134 262.754 143.441 262.458C143.748 262.162 144.138 262.014 144.613 262.014H147.694C148.788 262.014 149.746 262.226 150.566 262.651C151.387 263.075 152.012 263.661 152.442 264.409C152.877 265.157 153.095 266.017 153.095 266.988V269.048ZM146.237 264.761V271.275H147.694C148.353 271.275 148.861 271.085 149.218 270.706C149.575 270.326 149.754 269.773 149.754 269.048V266.988C149.754 266.262 149.575 265.71 149.218 265.33C148.861 264.95 148.353 264.761 147.694 264.761H146.237ZM158.412 264.761V266.645H161.669C162.172 266.645 162.568 266.776 162.858 267.038C163.154 267.295 163.302 267.622 163.302 268.018C163.302 268.414 163.154 268.744 162.858 269.006C162.568 269.263 162.172 269.391 161.669 269.391H158.412V271.275H163.386C163.888 271.275 164.285 271.406 164.575 271.669C164.871 271.925 165.019 272.252 165.019 272.648C165.019 273.045 164.871 273.374 164.575 273.636C164.285 273.893 163.888 274.021 163.386 274.021H156.788C156.313 274.021 155.922 273.876 155.615 273.586C155.308 273.29 155.155 272.922 155.155 272.481V263.563C155.155 263.122 155.308 262.754 155.615 262.458C155.922 262.162 156.313 262.014 156.788 262.014H163.218C163.721 262.014 164.117 262.145 164.407 262.408C164.698 262.665 164.843 262.991 164.843 263.387C164.843 263.784 164.698 264.113 164.407 264.375C164.117 264.632 163.721 264.761 163.218 264.761H158.412ZM172.647 268.704L171.533 265.364H171.366L170.252 268.704H172.647ZM169.046 272.648C168.862 273.162 168.63 273.547 168.351 273.804C168.072 274.061 167.704 274.189 167.246 274.189C166.771 274.189 166.381 274.044 166.074 273.754C165.772 273.458 165.621 273.089 165.621 272.648C165.621 272.458 165.638 272.28 165.672 272.112C165.705 271.939 165.741 271.803 165.781 271.702C165.82 271.596 165.881 271.454 165.965 271.275L168.962 263.471C169.191 262.879 169.498 262.433 169.883 262.131C170.274 261.824 170.796 261.671 171.449 261.671C172.102 261.671 172.622 261.824 173.007 262.131C173.397 262.433 173.707 262.879 173.936 263.471L176.934 271.275C177.018 271.454 177.079 271.596 177.118 271.702C177.157 271.803 177.193 271.939 177.227 272.112C177.26 272.28 177.277 272.458 177.277 272.648C177.277 273.089 177.124 273.458 176.817 273.754C176.515 274.044 176.127 274.189 175.653 274.189C175.195 274.189 174.824 274.058 174.539 273.795C174.254 273.533 174.025 273.151 173.852 272.648L173.425 271.451H169.482L169.046 272.648Z" fill="white"/>
<path d="M304.108 269.391C304.108 270.362 303.89 271.222 303.455 271.97C303.025 272.718 302.4 273.304 301.579 273.728C300.759 274.153 299.801 274.365 298.707 274.365C297.613 274.365 296.656 274.153 295.835 273.728C295.015 273.304 294.387 272.718 293.951 271.97C293.521 271.222 293.306 270.362 293.306 269.391V266.645C293.306 265.673 293.521 264.814 293.951 264.066C294.387 263.318 295.015 262.732 295.835 262.307C296.656 261.883 297.613 261.671 298.707 261.671C299.801 261.671 300.759 261.883 301.579 262.307C302.4 262.732 303.025 263.318 303.455 264.066C303.89 264.814 304.108 265.673 304.108 266.645V269.391ZM300.767 266.645C300.767 265.919 300.588 265.366 300.231 264.987C299.874 264.607 299.366 264.417 298.707 264.417C298.049 264.417 297.541 264.607 297.183 264.987C296.826 265.366 296.647 265.919 296.647 266.645V269.391C296.647 270.117 296.826 270.669 297.183 271.049C297.541 271.429 298.049 271.618 298.707 271.618C299.366 271.618 299.874 271.429 300.231 271.049C300.588 270.669 300.767 270.117 300.767 269.391V266.645ZM311.142 267.507C311.61 267.507 311.984 267.379 312.264 267.122C312.543 266.86 312.682 266.53 312.682 266.134C312.682 265.738 312.543 265.411 312.264 265.154C311.984 264.892 311.61 264.761 311.142 264.761H309.425V267.507H311.142ZM309.425 270.245V272.648C309.425 273.089 309.272 273.458 308.964 273.754C308.663 274.044 308.275 274.189 307.801 274.189C307.326 274.189 306.935 274.044 306.628 273.754C306.321 273.458 306.168 273.089 306.168 272.648V263.563C306.168 263.122 306.321 262.754 306.628 262.458C306.935 262.162 307.326 262.014 307.801 262.014H311.142C311.895 262.014 312.582 262.12 313.201 262.332C313.827 262.545 314.343 262.838 314.75 263.212C315.158 263.58 315.473 264.015 315.697 264.518C315.92 265.015 316.032 265.553 316.032 266.134C316.032 266.714 315.92 267.256 315.697 267.758C315.473 268.255 315.158 268.688 314.75 269.056C314.343 269.425 313.827 269.715 313.201 269.927C312.582 270.139 311.895 270.245 311.142 270.245H309.425ZM321.081 264.761V266.645H324.338C324.84 266.645 325.237 266.776 325.527 267.038C325.823 267.295 325.971 267.622 325.971 268.018C325.971 268.414 325.823 268.744 325.527 269.006C325.237 269.263 324.84 269.391 324.338 269.391H321.081V271.275H326.054C326.557 271.275 326.953 271.406 327.243 271.669C327.539 271.925 327.687 272.252 327.687 272.648C327.687 273.045 327.539 273.374 327.243 273.636C326.953 273.893 326.557 274.021 326.054 274.021H319.456C318.982 274.021 318.591 273.876 318.284 273.586C317.977 273.29 317.823 272.922 317.823 272.481V263.563C317.823 263.122 317.977 262.754 318.284 262.458C318.591 262.162 318.982 262.014 319.456 262.014H325.887C326.389 262.014 326.786 262.145 327.076 262.408C327.366 262.665 327.511 262.991 327.511 263.387C327.511 263.784 327.366 264.113 327.076 264.375C326.786 264.632 326.389 264.761 325.887 264.761H321.081ZM332.401 267.758V272.648C332.401 273.089 332.248 273.458 331.941 273.754C331.639 274.044 331.251 274.189 330.777 274.189C330.302 274.189 329.912 274.044 329.605 273.754C329.298 273.458 329.144 273.089 329.144 272.648V263.387C329.144 262.946 329.298 262.581 329.605 262.291C329.912 261.995 330.302 261.847 330.777 261.847C331.19 261.847 331.544 261.961 331.84 262.19C332.136 262.413 332.466 262.785 332.828 263.304L336.178 268.277H336.345V263.387C336.345 262.946 336.499 262.581 336.806 262.291C337.113 261.995 337.503 261.847 337.978 261.847C338.452 261.847 338.84 261.995 339.142 262.291C339.449 262.581 339.602 262.946 339.602 263.387V272.648C339.602 273.089 339.449 273.458 339.142 273.754C338.84 274.044 338.452 274.189 337.978 274.189C337.565 274.189 337.208 274.077 336.906 273.854C336.605 273.625 336.275 273.251 335.918 272.732L332.577 267.758H332.401Z" fill="white"/>
<path d="M36.4788 264.761C35.9764 264.761 35.5773 264.632 35.2814 264.375C34.9911 264.113 34.846 263.784 34.846 263.387C34.846 262.991 34.9911 262.665 35.2814 262.408C35.5773 262.145 35.9764 262.014 36.4788 262.014H43.8556C44.358 262.014 44.7544 262.145 45.0447 262.408C45.3349 262.665 45.4801 262.991 45.4801 263.387C45.4801 263.784 45.3349 264.113 45.0447 264.375C44.7544 264.632 44.358 264.761 43.8556 264.761H41.7958V272.648C41.7958 273.089 41.6423 273.458 41.3353 273.754C41.0283 274.044 40.6375 274.189 40.163 274.189C39.6885 274.189 39.2978 274.044 38.9908 273.754C38.6893 273.458 38.5386 273.089 38.5386 272.648V264.761H36.4788ZM50.0184 264.761V266.645H53.2756C53.778 266.645 54.1743 266.776 54.4646 267.038C54.7605 267.295 54.9084 267.622 54.9084 268.018C54.9084 268.414 54.7605 268.744 54.4646 269.006C54.1743 269.263 53.778 269.391 53.2756 269.391H50.0184V271.275H54.9921C55.4945 271.275 55.8908 271.406 56.1811 271.669C56.477 271.925 56.6249 272.252 56.6249 272.648C56.6249 273.045 56.477 273.374 56.1811 273.636C55.8908 273.893 55.4945 274.021 54.9921 274.021H48.394C47.9195 274.021 47.5287 273.876 47.2217 273.586C46.9147 273.29 46.7612 272.922 46.7612 272.481V263.563C46.7612 263.122 46.9147 262.754 47.2217 262.458C47.5287 262.162 47.9195 262.014 48.394 262.014H54.8247C55.327 262.014 55.7234 262.145 56.0137 262.408C56.3039 262.665 56.4491 262.991 56.4491 263.387C56.4491 263.784 56.3039 264.113 56.0137 264.375C55.7234 264.632 55.327 264.761 54.8247 264.761H50.0184ZM57.9144 266.645C57.9144 265.673 58.1293 264.814 58.5591 264.066C58.9945 263.318 59.6225 262.732 60.4431 262.307C61.2637 261.883 62.2211 261.671 63.3152 261.671C63.9906 261.671 64.6214 261.766 65.2075 261.956C65.7992 262.145 66.2821 262.385 66.6561 262.676C67.0301 262.96 67.3232 263.265 67.5353 263.588C67.7474 263.912 67.8535 264.216 67.8535 264.501C67.8535 264.942 67.7083 265.297 67.4181 265.564C67.1334 265.827 66.737 265.958 66.2291 265.958C65.9779 265.958 65.7546 265.905 65.5592 265.799C65.3694 265.693 65.2075 265.564 65.0736 265.414C64.9396 265.263 64.8 265.112 64.6549 264.962C64.5153 264.811 64.3311 264.682 64.1023 264.576C63.879 264.47 63.6166 264.417 63.3152 264.417C62.6565 264.417 62.1485 264.607 61.7912 264.987C61.434 265.366 61.2553 265.919 61.2553 266.645V269.391C61.2553 270.117 61.434 270.669 61.7912 271.049C62.1485 271.429 62.6565 271.618 63.3152 271.618C63.6445 271.618 63.9348 271.565 64.186 271.459C64.4372 271.353 64.6381 271.225 64.7889 271.074C64.9452 270.923 65.0931 270.773 65.2326 270.622C65.3778 270.471 65.5452 270.343 65.735 270.237C65.9304 270.131 66.1509 270.078 66.3965 270.078C66.9045 270.078 67.3036 270.212 67.5939 270.48C67.8842 270.742 68.0293 271.094 68.0293 271.535C68.0293 271.819 67.9205 272.124 67.7028 272.447C67.4906 272.771 67.192 273.078 66.8068 273.368C66.4217 273.653 65.922 273.89 65.308 274.08C64.694 274.27 64.0297 274.365 63.3152 274.365C62.2211 274.365 61.2637 274.153 60.4431 273.728C59.6225 273.304 58.9945 272.718 58.5591 271.97C58.1293 271.222 57.9144 270.362 57.9144 269.391V266.645ZM79.9445 272.648C79.9445 273.089 79.791 273.458 79.484 273.754C79.177 274.044 78.7862 274.189 78.3117 274.189C77.8372 274.189 77.4465 274.044 77.1395 273.754C76.838 273.458 76.6873 273.089 76.6873 272.648V269.475H72.9109V272.648C72.9109 273.089 72.7574 273.458 72.4504 273.754C72.149 274.044 71.761 274.189 71.2865 274.189C70.812 274.189 70.4213 274.044 70.1143 273.754C69.8072 273.458 69.6537 273.089 69.6537 272.648V263.387C69.6537 262.946 69.8072 262.581 70.1143 262.291C70.4213 261.995 70.812 261.847 71.2865 261.847C71.761 261.847 72.149 261.995 72.4504 262.291C72.7574 262.581 72.9109 262.946 72.9109 263.387V266.737H76.6873V263.387C76.6873 262.946 76.838 262.581 77.1395 262.291C77.4465 261.995 77.8372 261.847 78.3117 261.847C78.7862 261.847 79.177 261.995 79.484 262.291C79.791 262.581 79.9445 262.946 79.9445 263.387V272.648Z" fill="white"/>
<path d="M331.069 156.467C331.069 156.908 330.916 157.277 330.609 157.573C330.302 157.863 329.911 158.008 329.437 158.008C328.962 158.008 328.571 157.863 328.264 157.573C327.963 157.277 327.812 156.908 327.812 156.467V153.294H324.036V156.467C324.036 156.908 323.882 157.277 323.575 157.573C323.274 157.863 322.886 158.008 322.411 158.008C321.937 158.008 321.546 157.863 321.239 157.573C320.932 157.277 320.779 156.908 320.779 156.467V147.206C320.779 146.765 320.932 146.4 321.239 146.11C321.546 145.814 321.937 145.666 322.411 145.666C322.886 145.666 323.274 145.814 323.575 146.11C323.882 146.4 324.036 146.765 324.036 147.206V150.556H327.812V147.206C327.812 146.765 327.963 146.4 328.264 146.11C328.571 145.814 328.962 145.666 329.437 145.666C329.911 145.666 330.302 145.814 330.609 146.11C330.916 146.4 331.069 146.765 331.069 147.206V156.467ZM342.231 156.894C341.327 157.754 340.068 158.184 338.455 158.184C336.841 158.184 335.58 157.754 334.67 156.894C333.76 156.029 333.305 154.86 333.305 153.386V147.206C333.305 146.765 333.459 146.4 333.766 146.11C334.073 145.814 334.463 145.666 334.938 145.666C335.412 145.666 335.8 145.814 336.102 146.11C336.409 146.4 336.562 146.765 336.562 147.206V153.386C336.562 154.067 336.724 154.581 337.048 154.927C337.372 155.267 337.841 155.437 338.455 155.437C339.069 155.437 339.535 155.267 339.853 154.927C340.177 154.581 340.339 154.067 340.339 153.386V147.206C340.339 146.765 340.489 146.4 340.791 146.11C341.098 145.814 341.489 145.666 341.963 145.666C342.437 145.666 342.828 145.814 343.135 146.11C343.442 146.4 343.596 146.765 343.596 147.206V153.386C343.596 154.86 343.141 156.029 342.231 156.894ZM352.689 152.607L355.352 147.206C355.854 146.179 356.597 145.666 357.579 145.666C358.087 145.666 358.514 145.833 358.86 146.168C359.206 146.503 359.379 146.908 359.379 147.382V156.467C359.379 156.908 359.226 157.277 358.919 157.573C358.612 157.863 358.221 158.008 357.747 158.008C357.272 158.008 356.881 157.863 356.574 157.573C356.273 157.277 356.122 156.908 356.122 156.467V152.18H355.946L354.489 155.094C354.233 155.608 353.956 155.996 353.66 156.258C353.37 156.515 353.019 156.643 352.605 156.643C352.192 156.643 351.838 156.515 351.542 156.258C351.252 155.996 350.978 155.608 350.721 155.094L349.265 152.18H349.089V156.467C349.089 156.908 348.935 157.277 348.628 157.573C348.327 157.863 347.939 158.008 347.464 158.008C346.99 158.008 346.599 157.863 346.292 157.573C345.985 157.277 345.831 156.908 345.831 156.467V147.382C345.831 146.908 346.005 146.503 346.351 146.168C346.697 145.833 347.124 145.666 347.632 145.666C348.614 145.666 349.357 146.179 349.859 147.206L352.522 152.607H352.689ZM367.778 152.523L366.664 149.183H366.497L365.383 152.523H367.778ZM364.177 156.467C363.993 156.981 363.761 157.366 363.482 157.623C363.203 157.88 362.835 158.008 362.377 158.008C361.903 158.008 361.512 157.863 361.205 157.573C360.903 157.277 360.753 156.908 360.753 156.467C360.753 156.278 360.769 156.099 360.803 155.931C360.836 155.758 360.873 155.622 360.912 155.521C360.951 155.415 361.012 155.273 361.096 155.094L364.094 147.29C364.322 146.698 364.629 146.252 365.015 145.95C365.405 145.643 365.927 145.49 366.58 145.49C367.234 145.49 367.753 145.643 368.138 145.95C368.529 146.252 368.838 146.698 369.067 147.29L372.065 155.094C372.149 155.273 372.21 155.415 372.249 155.521C372.288 155.622 372.325 155.758 372.358 155.931C372.392 156.099 372.408 156.278 372.408 156.467C372.408 156.908 372.255 157.277 371.948 157.573C371.646 157.863 371.258 158.008 370.784 158.008C370.326 158.008 369.955 157.877 369.67 157.614C369.386 157.352 369.157 156.97 368.984 156.467L368.557 155.27H364.613L364.177 156.467ZM377.039 151.577V156.467C377.039 156.908 376.885 157.277 376.578 157.573C376.277 157.863 375.889 158.008 375.414 158.008C374.94 158.008 374.549 157.863 374.242 157.573C373.935 157.277 373.781 156.908 373.781 156.467V147.206C373.781 146.765 373.935 146.4 374.242 146.11C374.549 145.814 374.94 145.666 375.414 145.666C375.827 145.666 376.182 145.78 376.478 146.009C376.774 146.232 377.103 146.604 377.466 147.123L380.815 152.096H380.983V147.206C380.983 146.765 381.136 146.4 381.443 146.11C381.75 145.814 382.141 145.666 382.615 145.666C383.09 145.666 383.478 145.814 383.779 146.11C384.086 146.4 384.24 146.765 384.24 147.206V156.467C384.24 156.908 384.086 157.277 383.779 157.573C383.478 157.863 383.09 158.008 382.615 158.008C382.202 158.008 381.845 157.896 381.544 157.673C381.242 157.444 380.913 157.07 380.555 156.551L377.215 151.577H377.039ZM392.395 154.324C392.395 154.14 392.323 153.975 392.178 153.83C392.032 153.685 391.837 153.562 391.591 153.461C391.346 153.355 391.064 153.258 390.746 153.168C390.433 153.073 390.101 152.973 389.749 152.867C389.398 152.761 389.046 152.646 388.694 152.523C388.343 152.395 388.008 152.239 387.69 152.055C387.377 151.865 387.098 151.653 386.852 151.418C386.607 151.178 386.411 150.882 386.266 150.531C386.121 150.173 386.048 149.78 386.048 149.35C386.048 148.809 386.154 148.306 386.367 147.843C386.579 147.374 386.883 146.966 387.279 146.62C387.681 146.269 388.186 145.992 388.795 145.791C389.409 145.59 390.093 145.49 390.846 145.49C391.522 145.49 392.152 145.585 392.739 145.775C393.33 145.964 393.813 146.204 394.187 146.495C394.561 146.779 394.854 147.084 395.066 147.407C395.284 147.731 395.393 148.035 395.393 148.32C395.393 148.761 395.248 149.116 394.958 149.383C394.673 149.646 394.276 149.777 393.769 149.777C393.517 149.777 393.291 149.724 393.09 149.618C392.889 149.512 392.716 149.383 392.571 149.233C392.426 149.082 392.275 148.931 392.119 148.781C391.963 148.63 391.762 148.502 391.516 148.395C391.276 148.289 390.997 148.236 390.679 148.236C390.26 148.236 389.939 148.326 389.716 148.504C389.498 148.677 389.389 148.903 389.389 149.183C389.389 149.367 389.462 149.531 389.607 149.677C389.752 149.822 389.948 149.947 390.193 150.053C390.439 150.154 390.718 150.252 391.03 150.346C391.349 150.436 391.684 150.533 392.035 150.639C392.387 150.746 392.739 150.863 393.09 150.991C393.442 151.114 393.774 151.27 394.087 151.46C394.405 151.644 394.687 151.856 394.932 152.096C395.178 152.331 395.373 152.627 395.519 152.984C395.664 153.336 395.736 153.726 395.736 154.156C395.736 154.72 395.622 155.245 395.393 155.73C395.17 156.211 394.843 156.635 394.413 157.003C393.983 157.372 393.434 157.659 392.764 157.866C392.094 158.078 391.34 158.184 390.503 158.184C389.788 158.184 389.124 158.089 388.51 157.899C387.896 157.709 387.396 157.472 387.011 157.187C386.626 156.897 386.325 156.59 386.107 156.266C385.895 155.943 385.789 155.638 385.789 155.354C385.789 154.913 385.934 154.561 386.224 154.299C386.514 154.031 386.914 153.897 387.422 153.897C387.673 153.897 387.896 153.95 388.091 154.056C388.292 154.162 388.465 154.29 388.611 154.441C388.756 154.592 388.909 154.742 389.071 154.893C389.233 155.044 389.451 155.172 389.724 155.278C389.998 155.384 390.316 155.437 390.679 155.437C391.204 155.437 391.619 155.326 391.926 155.102C392.239 154.874 392.395 154.614 392.395 154.324Z" fill="white"/>
<path d="M161.425 153.386V156.467C161.425 156.908 161.272 157.277 160.965 157.573C160.663 157.863 160.275 158.008 159.801 158.008C159.326 158.008 158.936 157.863 158.629 157.573C158.322 157.277 158.168 156.908 158.168 156.467V147.382C158.168 146.941 158.322 146.573 158.629 146.277C158.936 145.981 159.326 145.833 159.801 145.833H163.401C164.864 145.833 166 146.19 166.809 146.905C167.624 147.62 168.032 148.549 168.032 149.693C168.032 150.626 167.728 151.374 167.119 151.937C166.868 152.189 166.572 152.384 166.232 152.523V152.699L168.199 155.27C168.283 155.37 168.353 155.485 168.409 155.613C168.554 155.892 168.626 156.177 168.626 156.467C168.626 156.908 168.473 157.277 168.166 157.573C167.864 157.863 167.476 158.008 167.002 158.008C166.65 158.008 166.377 157.944 166.181 157.815C165.986 157.687 165.802 157.494 165.629 157.238L162.798 153.386H161.425ZM163.401 150.807C163.775 150.807 164.082 150.698 164.322 150.48C164.562 150.263 164.682 150 164.682 149.693C164.682 149.386 164.562 149.124 164.322 148.906C164.082 148.689 163.775 148.58 163.401 148.58H161.425V150.807H163.401ZM180.809 153.21C180.809 154.181 180.592 155.041 180.156 155.789C179.726 156.537 179.101 157.123 178.281 157.547C177.46 157.972 176.503 158.184 175.409 158.184C174.315 158.184 173.357 157.972 172.537 157.547C171.716 157.123 171.088 156.537 170.653 155.789C170.223 155.041 170.008 154.181 170.008 153.21V150.464C170.008 149.492 170.223 148.633 170.653 147.885C171.088 147.137 171.716 146.551 172.537 146.126C173.357 145.702 174.315 145.49 175.409 145.49C176.503 145.49 177.46 145.702 178.281 146.126C179.101 146.551 179.726 147.137 180.156 147.885C180.592 148.633 180.809 149.492 180.809 150.464V153.21ZM177.468 150.464C177.468 149.738 177.29 149.185 176.933 148.806C176.575 148.426 176.067 148.236 175.409 148.236C174.75 148.236 174.242 148.426 173.885 148.806C173.527 149.185 173.349 149.738 173.349 150.464V153.21C173.349 153.936 173.527 154.488 173.885 154.868C174.242 155.248 174.75 155.437 175.409 155.437C176.067 155.437 176.575 155.248 176.933 154.868C177.29 154.488 177.468 153.936 177.468 153.21V150.464ZM186.21 156.467C186.21 156.908 186.057 157.277 185.75 157.573C185.448 157.863 185.06 158.008 184.586 158.008C184.111 158.008 183.721 157.863 183.414 157.573C183.106 157.277 182.953 156.908 182.953 156.467V147.206C182.953 146.765 183.106 146.4 183.414 146.11C183.721 145.814 184.111 145.666 184.586 145.666C185.06 145.666 185.448 145.814 185.75 146.11C186.057 146.4 186.21 146.765 186.21 147.206V156.467Z" fill="white"/>
<path d="M287.147 75.5262C290.072 76.3653 293.109 76.7414 296.15 76.6409C299.002 76.444 301.799 75.761 304.42 74.6216L303.1 73.3098C299.996 83.5388 295.027 93.1334 290.341 102.702C289.055 105.3 287.803 107.898 286.581 110.518L288.54 111.345C289.531 107.448 290.611 103.564 291.143 99.5727C291.443 97.65 291.511 95.6982 291.344 93.7593C291.297 93.3092 291.233 92.859 291.147 92.4132C291.113 92.2331 291.07 92.0573 291.036 91.8773L290.997 91.6672C290.958 91.4357 290.997 91.8601 290.997 91.6029C290.954 91.0407 290.954 90.476 290.997 89.9138C291.023 89.6223 291.053 89.3265 291.091 89.0306C291.066 89.2536 291.117 88.8677 291.126 88.8206L291.203 88.3276C291.297 87.7574 291.404 87.1872 291.499 86.6127C291.679 85.5581 291.893 84.4434 291.674 83.3802C291.04 80.2463 287.169 82.2356 285.565 83.1916C284.981 83.4608 284.521 83.9421 284.279 84.5377C284.199 84.8211 284.202 85.1216 284.289 85.4031C284.376 85.6846 284.542 85.9349 284.768 86.124C285.659 86.9214 287.109 87.0929 288.24 87.2558C292.527 87.8731 296.892 87.886 301.2 87.8388C305.497 87.8468 309.79 87.6178 314.062 87.1529C315.254 87.0114 316.677 86.9385 317.77 86.3726C318.059 86.2529 318.296 86.0349 318.44 85.7572C318.583 85.4794 318.624 85.1599 318.555 84.855C318.477 84.6322 318.352 84.4288 318.188 84.2586C318.025 84.0885 317.827 83.9556 317.607 83.8689C316.492 83.3894 315.328 83.0357 314.135 82.8143C312.27 82.3856 310.388 82.0255 308.506 81.6868C303.618 80.8037 298.701 80.0577 293.784 79.3589C289.265 78.7201 284.742 78.1156 280.206 77.644C278.89 77.5069 277.57 77.3611 276.249 77.2968C275.908 77.2718 275.565 77.279 275.225 77.3182C275.045 77.3365 274.872 77.3956 274.719 77.4911C274.566 77.5865 274.436 77.7157 274.341 77.8687C274.245 78.0218 274.186 78.1947 274.168 78.3742C274.149 78.5538 274.172 78.7351 274.234 78.9045C274.498 79.5168 274.873 80.075 275.34 80.5507C275.953 81.2924 276.601 81.9998 277.257 82.6943C279.096 84.6749 281.004 86.5998 282.92 88.5076C286.483 92.0573 290.062 95.6328 293.818 98.9811C295.533 100.494 297.316 101.901 299.125 103.268C301.42 105.043 303.809 106.693 306.281 108.211C307.327 108.851 308.412 109.424 309.53 109.926C310.473 110.384 311.489 110.674 312.531 110.783C312.966 110.833 313.406 110.765 313.806 110.588C314.206 110.411 314.552 110.131 314.808 109.776C315.356 108.919 315.189 107.958 314.808 107.101C314.326 106.157 313.693 105.298 312.934 104.559C312.019 103.606 311.045 102.711 310.019 101.879C307.918 100.139 305.702 98.5309 303.442 97.0004C301.626 95.7334 299.682 94.66 297.642 93.7979C294.42 92.5311 291.085 91.5694 287.683 90.9255C284.232 90.1894 280.723 89.7591 277.197 89.6394C275.792 89.587 274.385 89.6659 272.995 89.8752C272.704 89.9052 272.423 90.0009 272.174 90.1552C271.924 90.3095 271.713 90.5184 271.557 90.766C271.4 91.0136 271.301 91.2936 271.268 91.5849C271.235 91.8761 271.269 92.1711 271.366 92.4475C271.726 93.5664 272.82 94.0209 273.879 94.2395C276.442 94.7255 279.034 95.0534 281.638 95.2212C284.841 95.4828 288.069 95.65 291.267 95.6928C294.298 95.7528 297.338 95.74 300.364 95.5428C301.59 95.4613 302.812 95.3456 304.026 95.1612C304.815 95.063 305.59 94.8746 306.336 94.5996C307.164 94.2695 308.077 93.6221 307.777 92.589C307.52 91.7101 306.491 91.3628 305.71 91.1442C303.31 90.4754 300.69 90.3468 298.212 90.2868C296.925 90.2502 295.637 90.2817 294.354 90.3811C293.291 90.4352 292.239 90.618 291.22 90.9255C290.95 91.0073 290.721 91.1902 290.582 91.4362C290.443 91.6821 290.404 91.9722 290.474 92.246C290.551 92.5185 290.732 92.7496 290.979 92.8893C291.225 93.0289 291.517 93.0658 291.79 92.9919C292.21 92.8548 292.64 92.7502 293.076 92.679L293.419 92.6275C293.453 92.6275 293.642 92.5975 293.501 92.6275H293.638C293.912 92.5975 294.191 92.5675 294.47 92.5461C295.745 92.4532 297.024 92.4246 298.302 92.4603C299.588 92.4946 300.909 92.5718 302.203 92.7176L302.675 92.769L302.894 92.799L303.751 92.9276C304.206 93.0091 304.664 93.0991 305.11 93.2192C305.281 93.2621 305.45 93.3136 305.616 93.3735C305.655 93.3735 305.942 93.5021 305.749 93.4207C305.556 93.3392 305.8 93.4507 305.843 93.4678C305.886 93.485 305.98 93.5707 306.006 93.5664C306.032 93.5621 305.788 93.3649 305.925 93.5107C305.98 93.5707 305.925 93.5621 305.886 93.4592L305.822 93.3735C305.873 93.4592 305.848 93.3992 305.749 93.1849C305.722 93.0432 305.722 92.8978 305.749 92.7561C305.749 92.6747 306.023 92.3274 305.835 92.5375C305.95 92.4218 306.028 92.4132 305.865 92.4946L305.667 92.5975C305.466 92.7133 305.839 92.5504 305.706 92.5975C305.642 92.5975 305.577 92.649 305.513 92.6704C305.35 92.7261 305.179 92.7776 305.012 92.8205C304.626 92.9233 304.236 93.0005 303.841 93.0648L303.155 93.172H303.185L303.009 93.1934L302.555 93.2492C301.355 93.3821 300.146 93.4592 298.941 93.515C292.941 93.7474 286.931 93.5855 280.952 93.0305C279.666 92.9191 278.38 92.7862 277.094 92.6018C276.879 92.5718 277.03 92.6018 277.072 92.6018L276.824 92.5675L276.434 92.5118C276.155 92.4732 275.876 92.4303 275.602 92.3832C275.035 92.3019 274.472 92.1903 273.917 92.0488C273.744 91.9654 273.566 91.891 273.385 91.8258C273.385 91.8258 273.36 91.8601 273.347 91.8601L273.197 92.0059L273.373 91.9673C273.458 91.9673 273.557 91.9373 273.647 91.9244C273.407 91.9587 273.737 91.9244 273.758 91.9244C274.372 91.8559 274.989 91.813 275.606 91.7958C277.084 91.763 278.563 91.8159 280.035 91.9545C283.383 92.2573 286.702 92.8177 289.964 93.6307C292.933 94.2952 295.823 95.2739 298.585 96.5503C300.273 97.443 301.893 98.4605 303.43 99.5941C305.54 101.026 307.564 102.581 309.492 104.25C310.4 105.024 311.249 105.867 312.03 106.771L312.248 107.045L312.334 107.157C312.467 107.341 312.595 107.534 312.711 107.731C312.801 107.887 312.883 108.047 312.956 108.211C312.818 107.907 312.986 108.4 313.028 108.507C313.028 108.233 313.071 108.614 313.028 108.507C313.028 108.554 313.028 108.799 313.028 108.58C313.028 108.361 313.028 108.618 312.994 108.661C312.93 108.799 313.136 108.391 312.994 108.636C312.853 108.88 313.153 108.447 313.02 108.597C312.887 108.747 313.14 108.498 313.058 108.597C313.012 108.631 312.962 108.658 312.908 108.679C313.123 108.593 313.076 108.61 312.908 108.657C312.741 108.704 312.677 108.631 312.951 108.657C312.887 108.657 312.814 108.657 312.746 108.657H312.531H312.415C312.205 108.657 312.668 108.713 312.458 108.657C312.063 108.575 311.672 108.472 311.288 108.348C311.069 108.271 310.859 108.185 310.632 108.095C310.486 108.035 310.791 108.164 310.632 108.095L310.465 108.023L310.036 107.83C309.522 107.585 309.016 107.319 308.518 107.041C307.369 106.402 306.255 105.703 305.162 104.979C303.998 104.207 302.855 103.407 301.732 102.578C300.647 101.781 299.7 101.06 298.731 100.289C295.546 97.7721 292.626 94.9855 289.707 92.1688C285.874 88.4733 282.041 84.7521 278.436 80.8337C277.861 80.2077 277.291 79.5775 276.755 78.9216L276.597 78.7244C276.442 78.5358 276.738 78.9216 276.597 78.7244C276.519 78.6172 276.438 78.5143 276.365 78.4029C276.292 78.2914 276.271 78.24 276.215 78.1585C276.069 77.9399 276.284 78.4114 276.215 78.2057C276.259 78.4131 276.238 78.6292 276.153 78.8237C276.069 79.0182 275.925 79.1813 275.743 79.2903C275.649 79.346 275.405 79.4146 275.572 79.3718C275.143 79.4789 275.413 79.3932 275.606 79.3932C275.992 79.3932 276.378 79.4146 276.764 79.4404C280.142 79.6719 283.516 80.1263 286.873 80.5593L288.588 80.7822L289.385 80.8894C289.445 80.8894 289.599 80.9151 289.385 80.8894L289.586 80.9151L290.092 80.9837C291.29 81.1466 292.483 81.3138 293.672 81.4853C296.073 81.8226 298.472 82.1812 300.87 82.5614C304.943 83.2002 309.016 83.8475 313.05 84.7607C314.197 85.0058 315.329 85.3164 316.441 85.691C316.175 85.5538 316.673 85.7724 316.441 85.691L316.638 85.7939C316.69 85.8196 316.887 85.9439 316.668 85.7939C316.45 85.6438 316.578 85.721 316.617 85.7639C316.728 85.8796 316.471 85.5581 316.497 85.6009C316.414 85.4268 316.383 85.2328 316.406 85.0415C316.43 84.8502 316.507 84.6695 316.63 84.5206C316.574 84.5763 316.921 84.3062 316.72 84.4434C316.518 84.5806 316.613 84.4434 316.767 84.4434C316.338 84.5206 315.935 84.6835 315.511 84.765C315.206 84.8207 314.898 84.8721 314.593 84.915L314.357 84.9493C314.177 84.975 314.628 84.915 314.357 84.9493L313.779 85.0222C311.94 85.2323 310.092 85.3609 308.244 85.4509C303.785 85.6867 299.305 85.7553 294.843 85.6052C292.96 85.5452 291.078 85.4466 289.209 85.2194L288.943 85.1851C288.669 85.1551 289.046 85.1851 288.901 85.1851L288.343 85.1036C288.035 85.0522 287.722 84.9922 287.413 84.9236C287.148 84.8681 286.886 84.7994 286.628 84.7178C286.53 84.6878 286.435 84.6406 286.337 84.6149C286.148 84.5592 286.603 84.7564 286.414 84.6449L286.285 84.5849C286.222 84.5348 286.153 84.493 286.08 84.4606C286.213 84.4949 286.277 84.6535 286.123 84.4606C286.214 84.5466 286.277 84.6574 286.306 84.7792C286.335 84.9011 286.328 85.0287 286.285 85.1465C286.341 84.915 286.127 85.4337 286.247 85.2237C286.367 85.0136 286.015 85.3909 286.247 85.258C286.284 85.2326 286.317 85.2023 286.345 85.1679C286.474 85.0265 286.29 85.2323 286.26 85.2323C286.337 85.2323 286.543 85.0479 286.611 85.0093C286.984 84.7864 287.366 84.5806 287.752 84.3748C288.029 84.2302 288.316 84.1027 288.609 83.9933C288.836 83.9118 289.068 83.8475 289.304 83.7832C289.539 83.7189 289.226 83.7832 289.381 83.7832C289.535 83.7832 289.595 83.7832 289.694 83.7832C289.419 83.8089 289.531 83.7446 289.668 83.7832C289.805 83.8218 289.419 83.6546 289.625 83.7832C289.625 83.7832 289.496 83.6932 289.526 83.6889C289.436 83.556 289.492 83.6889 289.526 83.6889C289.551 83.7207 289.571 83.7552 289.586 83.7918C289.479 83.4188 289.556 83.7232 289.586 83.7918C289.617 83.8604 289.651 84.1047 289.617 83.899C289.582 83.6932 289.617 83.989 289.617 84.0319C289.617 84.1476 289.617 84.2591 289.617 84.3748C289.617 84.5892 289.617 84.8035 289.574 85.0136C289.574 85.1208 289.552 85.2323 289.535 85.3394C289.569 85.0693 289.514 85.4981 289.501 85.5709C289.419 86.0983 289.325 86.6213 289.231 87.1486C288.994 88.3215 288.85 89.5113 288.802 90.7069C288.802 92.0573 289.201 93.3563 289.265 94.7025C289.327 96.5106 289.207 98.3204 288.905 100.104C288.343 103.705 287.361 107.221 286.465 110.749C286.178 111.881 287.893 112.717 288.425 111.577C293.003 101.716 298.165 92.1602 302.225 82.0812C303.31 79.3803 304.313 76.6409 305.162 73.8542C305.376 73.1383 304.609 72.2123 303.841 72.5338C301.398 73.6164 298.789 74.2732 296.124 74.4759C293.278 74.5734 290.434 74.2233 287.696 73.4384C286.358 73.0868 285.788 75.1532 287.126 75.5048L287.147 75.5262Z" fill="white"/>
<path d="M57.1302 100.13L61.5159 92.0874C59.754 91.1255 57.725 90.7689 55.7407 91.0724C53.7564 91.3759 51.9267 92.3227 50.5329 93.7673C49.1391 95.2118 48.2583 97.0742 48.0259 99.068C47.7935 101.062 48.2224 103.077 49.2466 104.803C50.2709 106.53 51.8338 107.872 53.6951 108.624C55.5564 109.375 57.613 109.495 59.5489 108.964C61.4848 108.433 63.1927 107.281 64.4102 105.685C65.6276 104.089 66.2872 102.137 66.2875 100.13H57.1302ZM53.186 98.6295C52.8711 98.6304 52.563 98.5377 52.3008 98.3633C52.0385 98.1888 51.834 97.9405 51.7131 97.6496C51.5922 97.3588 51.5603 97.0387 51.6216 96.7298C51.6828 96.4208 51.8344 96.137 52.0571 95.9143C52.2798 95.6916 52.5636 95.5401 52.8725 95.4788C53.1814 95.4176 53.5016 95.4495 53.7924 95.5704C54.0832 95.6913 54.3315 95.8958 54.506 96.158C54.6804 96.4202 54.7731 96.7283 54.7723 97.0433C54.7723 97.464 54.6051 97.8674 54.3077 98.1649C54.0102 98.4624 53.6067 98.6295 53.186 98.6295Z" fill="white"/>
</g>
<defs>
<linearGradient id="paint0_linear_1_3" x1="294.83" y1="35.1801" x2="58.0733" y2="259.898" gradientUnits="userSpaceOnUse">
<stop stop-color="#F5C432"/>
<stop offset="1" stop-color="#ED345C"/>
</linearGradient>
<linearGradient id="paint1_linear_1_3" x1="360.877" y1="56.1999" x2="166.88" y2="240.332" gradientUnits="userSpaceOnUse">
<stop stop-color="#F5C432"/>
<stop offset="1" stop-color="#ED345C"/>
</linearGradient>
<linearGradient id="paint2_linear_1_3" x1="391.298" y1="-91.29" x2="-17.187" y2="296.424" gradientUnits="userSpaceOnUse">
<stop stop-color="#F5C432"/>
<stop offset="1" stop-color="#ED345C"/>
</linearGradient>
<linearGradient id="paint3_linear_1_3" x1="366.395" y1="-117.21" x2="-46.4209" y2="274.62" gradientUnits="userSpaceOnUse">
<stop stop-color="#F5C432"/>
<stop offset="1" stop-color="#ED345C"/>
</linearGradient>
<linearGradient id="paint4_linear_1_3" x1="405.214" y1="-83.5388" x2="-18.1345" y2="318.285" gradientUnits="userSpaceOnUse">
<stop stop-color="#F5C432"/>
<stop offset="1" stop-color="#ED345C"/>
</linearGradient>
<linearGradient id="paint5_linear_1_3" x1="437.016" y1="-43.1241" x2="28.5266" y2="344.59" gradientUnits="userSpaceOnUse">
<stop stop-color="#F5C432"/>
<stop offset="1" stop-color="#ED345C"/>
</linearGradient>
<linearGradient id="paint6_linear_1_3" x1="379.44" y1="-175.875" x2="-73.8071" y2="254.329" gradientUnits="userSpaceOnUse">
<stop stop-color="#F5C432"/>
<stop offset="1" stop-color="#ED345C"/>
</linearGradient>
<linearGradient id="paint7_linear_1_3" x1="314.482" y1="-144.334" x2="-71.6249" y2="222.142" gradientUnits="userSpaceOnUse">
<stop stop-color="#F5C432"/>
<stop offset="1" stop-color="#ED345C"/>
</linearGradient>
<linearGradient id="paint8_linear_1_3" x1="339.849" y1="-118.972" x2="-44.8861" y2="246.201" gradientUnits="userSpaceOnUse">
<stop stop-color="#F5C432"/>
<stop offset="1" stop-color="#ED345C"/>
</linearGradient>
<linearGradient id="paint9_linear_1_3" x1="329.011" y1="-156.913" x2="-79.4747" y2="230.802" gradientUnits="userSpaceOnUse">
<stop stop-color="#F5C432"/>
<stop offset="1" stop-color="#ED345C"/>
</linearGradient>
<linearGradient id="paint10_linear_1_3" x1="361.383" y1="-158.388" x2="-83.0672" y2="263.465" gradientUnits="userSpaceOnUse">
<stop stop-color="#F5C432"/>
<stop offset="1" stop-color="#ED345C"/>
</linearGradient>
<linearGradient id="paint11_linear_1_3" x1="315.592" y1="-171.056" x2="-92.8977" y2="216.663" gradientUnits="userSpaceOnUse">
<stop stop-color="#F5C432"/>
<stop offset="1" stop-color="#ED345C"/>
</linearGradient>
<linearGradient id="paint12_linear_1_3" x1="476.848" y1="-14.722" x2="47.2613" y2="393.022" gradientUnits="userSpaceOnUse">
<stop stop-color="#F5C432"/>
<stop offset="1" stop-color="#ED345C"/>
</linearGradient>
<linearGradient id="paint13_linear_1_3" x1="438.826" y1="-41.2164" x2="30.34" y2="346.498" gradientUnits="userSpaceOnUse">
<stop stop-color="#F5C432"/>
<stop offset="1" stop-color="#ED345C"/>
</linearGradient>
<linearGradient id="paint14_linear_1_3" x1="511.265" y1="5.81331" x2="44.6289" y2="448.724" gradientUnits="userSpaceOnUse">
<stop stop-color="#F5C432"/>
<stop offset="1" stop-color="#ED345C"/>
</linearGradient>
<linearGradient id="paint15_linear_1_3" x1="314.722" y1="116.966" x2="81.5196" y2="338.305" gradientUnits="userSpaceOnUse">
<stop stop-color="#F5C432"/>
<stop offset="1" stop-color="#ED345C"/>
</linearGradient>
<linearGradient id="paint16_linear_1_3" x1="467.742" y1="123.658" x2="244.919" y2="335.146" gradientUnits="userSpaceOnUse">
<stop stop-color="#F5C432"/>
<stop offset="1" stop-color="#ED345C"/>
</linearGradient>
<linearGradient id="paint17_linear_1_3" x1="521.623" y1="46.0137" x2="113.133" y2="433.728" gradientUnits="userSpaceOnUse">
<stop stop-color="#F5C432"/>
<stop offset="1" stop-color="#ED345C"/>
</linearGradient>
<linearGradient id="paint18_linear_1_3" x1="557.219" y1="62.1248" x2="137.265" y2="460.724" gradientUnits="userSpaceOnUse">
<stop stop-color="#F5C432"/>
<stop offset="1" stop-color="#ED345C"/>
</linearGradient>
<linearGradient id="paint19_linear_1_3" x1="528.049" y1="18.5718" x2="101.425" y2="423.508" gradientUnits="userSpaceOnUse">
<stop stop-color="#F5C432"/>
<stop offset="1" stop-color="#ED345C"/>
</linearGradient>
<linearGradient id="paint20_linear_1_3" x1="587.066" y1="79.7319" x2="133.814" y2="509.936" gradientUnits="userSpaceOnUse">
<stop stop-color="#F5C432"/>
<stop offset="1" stop-color="#ED345C"/>
</linearGradient>
<linearGradient id="paint21_linear_1_3" x1="560.966" y1="132.789" x2="191.309" y2="483.652" gradientUnits="userSpaceOnUse">
<stop stop-color="#F5C432"/>
<stop offset="1" stop-color="#ED345C"/>
</linearGradient>
<linearGradient id="paint22_linear_1_3" x1="583.906" y1="111.637" x2="175.42" y2="499.351" gradientUnits="userSpaceOnUse">
<stop stop-color="#F5C432"/>
<stop offset="1" stop-color="#ED345C"/>
</linearGradient>
<linearGradient id="paint23_linear_1_3" x1="599.871" y1="67.8051" x2="148.317" y2="496.402" gradientUnits="userSpaceOnUse">
<stop stop-color="#F5C432"/>
<stop offset="1" stop-color="#ED345C"/>
</linearGradient>
<linearGradient id="paint24_linear_1_3" x1="597.329" y1="125.776" x2="188.843" y2="513.494" gradientUnits="userSpaceOnUse">
<stop stop-color="#F5C432"/>
<stop offset="1" stop-color="#ED345C"/>
</linearGradient>
<linearGradient id="paint25_linear_1_3" x1="461.333" y1="-54.5322" x2="31.7419" y2="353.212" gradientUnits="userSpaceOnUse">
<stop stop-color="#F5C432"/>
<stop offset="1" stop-color="#ED345C"/>
</linearGradient>
<linearGradient id="paint26_linear_1_3" x1="473.234" y1="-4.05997" x2="64.7484" y2="383.654" gradientUnits="userSpaceOnUse">
<stop stop-color="#F5C432"/>
<stop offset="1" stop-color="#ED345C"/>
</linearGradient>
<linearGradient id="paint27_linear_1_3" x1="412.215" y1="-69.2542" x2="3.72551" y2="318.46" gradientUnits="userSpaceOnUse">
<stop stop-color="#F5C432"/>
<stop offset="1" stop-color="#ED345C"/>
</linearGradient>
<linearGradient id="paint28_linear_1_3" x1="471.099" y1="163.562" x2="195.694" y2="424.961" gradientUnits="userSpaceOnUse">
<stop stop-color="#F5C432"/>
<stop offset="1" stop-color="#ED345C"/>
</linearGradient>
<linearGradient id="paint29_linear_1_3" x1="487.206" y1="162.049" x2="211.745" y2="423.503" gradientUnits="userSpaceOnUse">
<stop stop-color="#F5C432"/>
<stop offset="1" stop-color="#ED345C"/>
</linearGradient>
<linearGradient id="paint30_linear_1_3" x1="301.71" y1="-47.66" x2="-7.17243" y2="245.515" gradientUnits="userSpaceOnUse">
<stop stop-color="#F5C432"/>
<stop offset="1" stop-color="#ED345C"/>
</linearGradient>
<linearGradient id="paint31_linear_1_3" x1="151.803" y1="305.483" x2="107.538" y2="347.501" gradientUnits="userSpaceOnUse">
<stop offset="0.04" stop-color="#EE615B"/>
<stop offset="1" stop-color="#ED345C"/>
</linearGradient>
<linearGradient id="paint32_linear_1_3" x1="182.953" y1="269.51" x2="309.406" y2="184.132" gradientUnits="userSpaceOnUse">
<stop stop-color="#F5C432"/>
<stop offset="1" stop-color="#ED345C"/>
</linearGradient>
<linearGradient id="paint33_linear_1_3" x1="449.157" y1="66.5704" x2="40.6676" y2="454.285" gradientUnits="userSpaceOnUse">
<stop stop-color="#F5C432"/>
<stop offset="1" stop-color="#ED345C"/>
</linearGradient>
<clipPath id="clip0_1_3">
<rect width="421.656" height="522.42" fill="white"/>
</clipPath>
</defs>
</svg>
